<svg width="49" height="48" viewBox="0 0 49 48" fill="none" xmlns="http://www.w3.org/2000/svg">
<path d="M17.1969 19.9996C16.9391 20.0137 16.6824 19.9562 16.4553 19.8335C16.2281 19.7107 16.0393 19.5276 15.9097 19.3042C15.7801 19.0809 15.7148 18.8261 15.721 18.568C15.7273 18.3098 15.8048 18.0584 15.9449 17.8416L23.3969 5.99961C23.514 5.78875 23.6836 5.61172 23.8893 5.48567C24.0949 5.35963 24.3296 5.28885 24.5707 5.2802C24.8117 5.27155 25.0509 5.32531 25.265 5.43629C25.4792 5.54727 25.661 5.71169 25.7929 5.91361L33.1969 17.7996C33.3429 18.0092 33.4287 18.2547 33.4451 18.5096C33.4616 18.7644 33.408 19.0189 33.2901 19.2455C33.1723 19.4721 32.9947 19.6621 32.7767 19.7951C32.5586 19.928 32.3083 19.9987 32.0529 19.9996H17.1969Z" stroke="var(--icon-color)" stroke-width="2" stroke-linecap="round" stroke-linejoin="round"/>
<path d="M18.5969 28H8.59692C7.49235 28 6.59692 28.8954 6.59692 30V40C6.59692 41.1046 7.49235 42 8.59692 42H18.5969C19.7015 42 20.5969 41.1046 20.5969 40V30C20.5969 28.8954 19.7015 28 18.5969 28Z" stroke="var(--icon-color)" stroke-width="2" stroke-linecap="round" stroke-linejoin="round"/>
<path d="M35.5969 42C39.4629 42 42.5969 38.866 42.5969 35C42.5969 31.134 39.4629 28 35.5969 28C31.7309 28 28.5969 31.134 28.5969 35C28.5969 38.866 31.7309 42 35.5969 42Z" stroke="var(--icon-color)" stroke-width="2" stroke-linecap="round" stroke-linejoin="round"/>
</svg>
