<svg xmlns="http://www.w3.org/2000/svg" width="18" height="18" viewBox="0 0 18 18" fill="none">
    <g clip-path="url(#clip0_28_142064)">
        <path d="M2.25 1.5V2.25C2.25 3 3.75 3 3.75 3.75C3.75 4.5 2.25 4.5 2.25 5.25C2.25 6 3.75 6 3.75 6.75C3.75 7.5 2.25 7.5 2.25 8.25C2.25 9 3.75 9 3.75 9.75" stroke="var(--icon-color)" stroke-width="1.5" stroke-linecap="round" stroke-linejoin="round"/>
        <path d="M13.5 4.5H13.5083" stroke="var(--icon-color)" stroke-width="1.5" stroke-linecap="round" stroke-linejoin="round"/>
        <path d="M4.5 13.5H4.50833" stroke="var(--icon-color)" stroke-width="1.5" stroke-linecap="round" stroke-linejoin="round"/>
        <path d="M15.6225 6.62221C15.9012 6.34348 16.1223 6.01258 16.2732 5.6484C16.424 5.28422 16.5017 4.8939 16.5017 4.49971C16.5017 4.10553 16.424 3.71521 16.2732 3.35103C16.1223 2.98685 15.9012 2.65595 15.6225 2.37722C15.3438 2.09848 15.0129 1.87738 14.6487 1.72654C14.2845 1.57569 13.8942 1.49805 13.5 1.49805C13.1058 1.49805 12.7155 1.57569 12.3513 1.72654C11.9871 1.87738 11.6562 2.09848 11.3775 2.37722L2.37749 11.3772C1.81457 11.9401 1.49832 12.7036 1.49832 13.4997C1.49832 13.8939 1.57596 14.2842 1.72681 14.6484C1.87766 15.0126 2.09876 15.3435 2.37749 15.6222C2.65622 15.9009 2.98712 16.122 3.3513 16.2729C3.71548 16.4237 4.1058 16.5014 4.49999 16.5014C5.29608 16.5014 6.05957 16.1851 6.62249 15.6222L15.6225 6.62221Z" stroke="var(--icon-color)" stroke-width="1.5" stroke-linecap="round" stroke-linejoin="round"/>
        <path d="M13.5 8.745V16.5C14.2956 16.5 15.0587 16.1839 15.6213 15.6213C16.1839 15.0587 16.5 14.2956 16.5 13.5V4.5" stroke="var(--icon-color)" stroke-width="1.5" stroke-linecap="round" stroke-linejoin="round"/>
    </g>
</svg>