<svg xmlns="http://www.w3.org/2000/svg" width="18" height="18" viewBox="0 0 18 18" fill="none">
    <path d="M15 12.75C15.3978 12.75 15.7794 12.592 16.0607 12.3107C16.342 12.0294 16.5 11.6478 16.5 11.25V6.75C16.5 6.35218 16.342 5.97064 16.0607 5.68934C15.7794 5.40804 15.3978 5.25 15 5.25H12.075C11.8241 5.25246 11.5767 5.19196 11.3552 5.07403C11.1338 4.95611 10.9455 4.78453 10.8075 4.575L10.2 3.675C10.0634 3.4676 9.87748 3.29736 9.65887 3.17955C9.44027 3.06174 9.19583 3.00004 8.9475 3H6C5.60218 3 5.22064 3.15804 4.93934 3.43934C4.65804 3.72064 4.5 4.10218 4.5 4.5V11.25C4.5 11.6478 4.65804 12.0294 4.93934 12.3107C5.22064 12.592 5.60218 12.75 6 12.75H15Z" stroke="var(--icon-color)" stroke-width="1.5" stroke-linecap="round" stroke-linejoin="round"/>
    <path d="M1.5 6V14.25C1.5 14.6478 1.65804 15.0294 1.93934 15.3107C2.22064 15.592 2.60218 15.75 3 15.75H13.5" stroke="var(--icon-color)" stroke-width="1.5" stroke-linecap="round" stroke-linejoin="round"/>
</svg>