<svg width="49" height="48" viewBox="0 0 49 48" fill="none" xmlns="http://www.w3.org/2000/svg">
<path d="M4.59692 24C4.59692 13 13.5969 4 24.5969 4C27.7018 4 30.7641 4.7229 33.5412 6.11146C36.3183 7.50001 38.734 9.51608 40.5969 12" stroke="var(--icon-color)" stroke-width="2" stroke-linecap="round" stroke-linejoin="round"/>
<path d="M10.5969 39C11.5969 36 12.5969 30 12.5969 24C12.5969 22.6 12.8369 21.26 13.2769 20" stroke="var(--icon-color)" stroke-width="2" stroke-linecap="round" stroke-linejoin="round"/>
<path d="M35.1769 42.04C35.4169 40.84 36.0369 37.44 36.1769 36" stroke="var(--icon-color)" stroke-width="2" stroke-linecap="round" stroke-linejoin="round"/>
<path d="M24.5969 20C23.536 20 22.5186 20.4214 21.7685 21.1716C21.0183 21.9217 20.5969 22.9391 20.5969 24C20.5969 26.04 20.3969 29.02 20.0769 32" stroke="var(--icon-color)" stroke-width="2" stroke-linecap="round" stroke-linejoin="round"/>
<path d="M17.8969 44C18.3169 42.68 18.7969 41.36 19.0369 40" stroke="var(--icon-color)" stroke-width="2" stroke-linecap="round" stroke-linejoin="round"/>
<path d="M28.5969 26.2402C28.5969 31.0002 28.5969 39.0002 26.5969 44.0002" stroke="var(--icon-color)" stroke-width="2" stroke-linecap="round" stroke-linejoin="round"/>
<path d="M4.59692 32H4.61692" stroke="var(--icon-color)" stroke-width="2" stroke-linecap="round" stroke-linejoin="round"/>
<path d="M44.1969 32C44.5969 28 44.4589 21.292 44.1969 20" stroke="var(--icon-color)" stroke-width="2" stroke-linecap="round" stroke-linejoin="round"/>
<path d="M18.5969 13.5999C20.4217 12.5463 22.4918 11.9919 24.5988 11.9922C26.7059 11.9925 28.7758 12.5477 30.6003 13.6018C32.4247 14.6559 33.9394 16.1719 34.9921 17.9972C36.0448 19.8225 36.5983 21.8928 36.5969 23.9999C36.5969 24.9399 36.5969 26.3399 36.5569 27.9999" stroke="var(--icon-color)" stroke-width="2" stroke-linecap="round" stroke-linejoin="round"/>
</svg>
