<svg width="27" height="28" viewBox="0 0 27 28" fill="none" xmlns="http://www.w3.org/2000/svg">
<path d="M5.92817 17.4271C8.24986 17.4271 10.132 15.545 10.132 13.2233C10.132 10.9016 8.24986 9.01953 5.92817 9.01953C3.60647 9.01953 1.72437 10.9016 1.72437 13.2233C1.72437 15.545 3.60647 17.4271 5.92817 17.4271Z" stroke="var(--icon-color)" stroke-width="var(--icon-stroke-width, 1.5)" stroke-linecap="round" stroke-linejoin="round"/>
<path d="M18.3518 0.799805L8.89587 10.2558" stroke="var(--icon-color)" stroke-width="var(--icon-stroke-width, 1.5)" stroke-linecap="round" stroke-linejoin="round"/>
<path d="M16.7855 6.21926L19.2039 3.80078" stroke="var(--icon-color)" stroke-width="var(--icon-stroke-width, 1.5)" stroke-linecap="round" stroke-linejoin="round"/>
<path d="M19.547 27.2012C22.8179 27.2012 25.4694 24.5497 25.4694 21.2788C25.4694 18.008 22.8179 15.3564 19.547 15.3564C16.2762 15.3564 13.6246 18.008 13.6246 21.2788C13.6246 24.5497 16.2762 27.2012 19.547 27.2012Z" stroke="var(--icon-color)" stroke-width="var(--icon-stroke-width, 1.5)" stroke-linecap="round" stroke-linejoin="round"/>
<path d="M19.5469 17.7207V21.2786L21.9226 22.4609" stroke="var(--icon-color)" stroke-width="var(--icon-stroke-width, 1.5)" stroke-linecap="round" stroke-linejoin="round"/>
<path d="M15.7867 16.6399V14.0277C15.7867 11.9448 17.4756 10.2559 19.5586 10.2559C21.6416 10.2559 23.3305 11.9448 23.3305 14.0277V16.6399" stroke="var(--icon-color)" stroke-width="var(--icon-stroke-width, 1.5)" stroke-linecap="round" stroke-linejoin="round"/>
</svg>
