<svg xmlns="http://www.w3.org/2000/svg" width="18" height="18" viewBox="0 0 18 18" fill="none">
    <path d="M3 14.625V3.375C3 2.87772 3.19754 2.40081 3.54917 2.04917C3.90081 1.69754 4.37772 1.5 4.875 1.5H10.5" stroke="var(--icon-color)" stroke-width="1.5" stroke-linecap="round" stroke-linejoin="round"/>
    <path d="M15 6V16.5H4.875C4.37772 16.5 3.90081 16.3025 3.54917 15.9508C3.19754 15.5992 3 15.1223 3 14.625C3 14.1277 3.19754 13.6508 3.54917 13.2992C3.90081 12.9475 4.37772 12.75 4.875 12.75H15" stroke="var(--icon-color)" stroke-width="1.5" stroke-linecap="round" stroke-linejoin="round"/>
    <path d="M10.5 7.5C11.3284 7.5 12 6.82843 12 6C12 5.17157 11.3284 4.5 10.5 4.5C9.67157 4.5 9 5.17157 9 6C9 6.82843 9.67157 7.5 10.5 7.5Z" stroke="var(--icon-color)" stroke-width="1.5" stroke-linecap="round" stroke-linejoin="round"/>
    <path d="M15 1.5L11.625 4.875" stroke="var(--icon-color)" stroke-width="1.5" stroke-linecap="round" stroke-linejoin="round"/>
    <path d="M14.25 2.25L15 3" stroke="var(--icon-color)" stroke-width="1.5" stroke-linecap="round" stroke-linejoin="round"/>
</svg>