<svg xmlns="http://www.w3.org/2000/svg" width="48" height="48" viewBox="0 0 48 48" fill="none">
    <path d="M16.6 19.9996C16.3422 20.0137 16.0855 19.9562 15.8583 19.8335C15.6311 19.7107 15.4423 19.5276 15.3128 19.3042C15.1832 19.0809 15.1179 18.8261 15.1241 18.568C15.1303 18.3098 15.2078 18.0584 15.348 17.8416L22.8 5.99961C22.9171 5.78875 23.0867 5.61172 23.2923 5.48567C23.498 5.35963 23.7327 5.28885 23.9737 5.2802C24.2148 5.27155 24.454 5.32531 24.6681 5.43629C24.8823 5.54727 25.0641 5.71169 25.196 5.91361L32.6 17.7996C32.746 18.0092 32.8318 18.2547 32.8482 18.5096C32.8646 18.7644 32.811 19.0189 32.6932 19.2455C32.5754 19.4721 32.3978 19.6621 32.1798 19.7951C31.9617 19.928 31.7114 19.9987 31.456 19.9996H16.6Z" stroke="var(--icon-color)" stroke-width="2" stroke-linecap="round" stroke-linejoin="round"/>
    <path d="M18 28H8C6.89543 28 6 28.8954 6 30V40C6 41.1046 6.89543 42 8 42H18C19.1046 42 20 41.1046 20 40V30C20 28.8954 19.1046 28 18 28Z" stroke="var(--icon-color)" stroke-width="2" stroke-linecap="round" stroke-linejoin="round"/>
    <path d="M35 42C38.866 42 42 38.866 42 35C42 31.134 38.866 28 35 28C31.134 28 28 31.134 28 35C28 38.866 31.134 42 35 42Z" stroke="var(--icon-color)" stroke-width="2" stroke-linecap="round" stroke-linejoin="round"/>
</svg>