<svg xmlns="http://www.w3.org/2000/svg" width="18" height="18" viewBox="0 0 18 18" fill="none">
    <g clip-path="url(#clip0_15_138462)">
        <path d="M9 5.25C10.0355 5.25 10.875 4.41053 10.875 3.375C10.875 2.33947 10.0355 1.5 9 1.5C7.96447 1.5 7.125 2.33947 7.125 3.375C7.125 4.41053 7.96447 5.25 9 5.25Z" stroke="var(--icon-color)" stroke-width="1.5" stroke-linecap="round" stroke-linejoin="round"/>
        <path d="M7.64998 4.72461L4.72498 7.64961" stroke="var(--icon-color)" stroke-width="1.5" stroke-linecap="round" stroke-linejoin="round"/>
        <path d="M3.375 10.875C4.41053 10.875 5.25 10.0355 5.25 9C5.25 7.96447 4.41053 7.125 3.375 7.125C2.33947 7.125 1.5 7.96447 1.5 9C1.5 10.0355 2.33947 10.875 3.375 10.875Z" stroke="var(--icon-color)" stroke-width="1.5" stroke-linecap="round" stroke-linejoin="round"/>
        <path d="M5.25 9H12.75" stroke="var(--icon-color)" stroke-width="1.5" stroke-linecap="round" stroke-linejoin="round"/>
        <path d="M14.625 10.875C15.6605 10.875 16.5 10.0355 16.5 9C16.5 7.96447 15.6605 7.125 14.625 7.125C13.5895 7.125 12.75 7.96447 12.75 9C12.75 10.0355 13.5895 10.875 14.625 10.875Z" stroke="var(--icon-color)" stroke-width="1.5" stroke-linecap="round" stroke-linejoin="round"/>
        <path d="M10.35 13.2746L13.275 10.3496" stroke="var(--icon-color)" stroke-width="1.5" stroke-linecap="round" stroke-linejoin="round"/>
        <path d="M9 16.5C10.0355 16.5 10.875 15.6605 10.875 14.625C10.875 13.5895 10.0355 12.75 9 12.75C7.96447 12.75 7.125 13.5895 7.125 14.625C7.125 15.6605 7.96447 16.5 9 16.5Z" stroke="var(--icon-color)" stroke-width="1.5" stroke-linecap="round" stroke-linejoin="round"/>
    </g>
</svg>