<svg xmlns="http://www.w3.org/2000/svg" width="18" height="18" viewBox="0 0 18 18" fill="none">
    <path d="M16.2975 13.4997L10.2975 2.99968C10.1667 2.76883 9.97696 2.57682 9.7477 2.44323C9.51844 2.30964 9.25785 2.23926 8.99251 2.23926C8.72717 2.23926 8.46657 2.30964 8.23732 2.44323C8.00806 2.57682 7.81834 2.76883 7.68751 2.99968L1.68751 13.4997C1.55527 13.7287 1.48593 13.9886 1.48651 14.2531C1.4871 14.5175 1.55759 14.7771 1.69084 15.0055C1.82409 15.234 2.01537 15.4231 2.24528 15.5538C2.47519 15.6845 2.73556 15.7521 3.00001 15.7497H15C15.2632 15.7494 15.5217 15.6799 15.7495 15.5481C15.9773 15.4164 16.1664 15.227 16.2979 14.999C16.4294 14.771 16.4985 14.5125 16.4985 14.2493C16.4984 13.9861 16.4291 13.7276 16.2975 13.4997Z" stroke="var(--icon-color)" stroke-width="1.5" stroke-linecap="round" stroke-linejoin="round"/>
    <path d="M9 6.75V9.75" stroke="var(--icon-color)" stroke-width="1.5" stroke-linecap="round" stroke-linejoin="round"/>
    <path d="M9 12.75H9.0075" stroke="var(--icon-color)" stroke-width="1.5" stroke-linecap="round" stroke-linejoin="round"/>
</svg>