<svg xmlns="http://www.w3.org/2000/svg" width="18" height="18" viewBox="0 0 18 18" fill="none">
    <g clip-path="url(#clip0_2274_651442)">
        <path d="M15.75 6L14.055 4.305C12.6982 2.99342 10.887 2.2571 8.99997 2.25C8.24997 2.25 7.52247 2.37 6.84747 2.6025" stroke="var(--icon-color)" stroke-width="1.5" stroke-linecap="round" stroke-linejoin="round"/>
        <path d="M6 12H2.25V15.75" stroke="var(--icon-color)" stroke-width="1.5" stroke-linecap="round" stroke-linejoin="round"/>
        <path d="M2.25 9.00047C2.25 7.13297 3 5.44547 4.23 4.23047" stroke="var(--icon-color)" stroke-width="1.5" stroke-linecap="round" stroke-linejoin="round"/>
        <path d="M2.25 12L3.945 13.695C5.30173 15.0066 7.11296 15.7429 9 15.75C10.8675 15.75 12.555 15 13.77 13.77" stroke="var(--icon-color)" stroke-width="1.5" stroke-linecap="round" stroke-linejoin="round"/>
        <path d="M15.75 9C15.75 9.75 15.63 10.4775 15.3975 11.1525" stroke="var(--icon-color)" stroke-width="1.5" stroke-linecap="round" stroke-linejoin="round"/>
        <path d="M15.75 2.25V6H12" stroke="var(--icon-color)" stroke-width="1.5" stroke-linecap="round" stroke-linejoin="round"/>
        <path d="M16.5 16.5L1.5 1.5" stroke="var(--icon-color)" stroke-width="1.5" stroke-linecap="round" stroke-linejoin="round"/>
    </g>
</svg>