<svg xmlns="http://www.w3.org/2000/svg" width="18" height="18" viewBox="0 0 18 18" fill="none">
    <path d="M12 15.75V14.25C12 13.4544 11.6839 12.6913 11.1213 12.1287C10.5587 11.5661 9.79565 11.25 9 11.25H4.5C3.70435 11.25 2.94129 11.5661 2.37868 12.1287C1.81607 12.6913 1.5 13.4544 1.5 14.25V15.75" stroke="var(--icon-color)" stroke-width="1.5" stroke-linecap="round" stroke-linejoin="round"/>
    <path d="M6.75 8.25C8.40685 8.25 9.75 6.90685 9.75 5.25C9.75 3.59315 8.40685 2.25 6.75 2.25C5.09315 2.25 3.75 3.59315 3.75 5.25C3.75 6.90685 5.09315 8.25 6.75 8.25Z" stroke="var(--icon-color)" stroke-width="1.5" stroke-linecap="round" stroke-linejoin="round"/>
    <path d="M14.25 6V10.5" stroke="var(--icon-color)" stroke-width="1.5" stroke-linecap="round" stroke-linejoin="round"/>
    <path d="M16.5 8.25H12" stroke="var(--icon-color)" stroke-width="1.5" stroke-linecap="round" stroke-linejoin="round"/>
</svg>