<svg xmlns="http://www.w3.org/2000/svg" viewBox="0 0 32 32"><defs><style>.cls-1{fill:#999;}.cls-2{fill:none;}</style></defs><g id="Layer_2" data-name="Layer 2"><g id="Layer_1-2" data-name="Layer 1"><g id="Inactive"><path class="cls-1" d="M31,13.85,18,1.73a3,3,0,0,0-4.05,0L5.84,9.36a7.2,7.2,0,0,1,4.42,4.78h11a1,1,0,0,1,1,1v1.66a1,1,0,0,1-1,1H20v2.35a1,1,0,0,1-1,1H16.19a1,1,0,0,1-1-1V17.83H10.29a7.06,7.06,0,0,1-4.45,4.81L14,30.27a3,3,0,0,0,4.05,0L31,18.15A3,3,0,0,0,31,13.85Z"/><path class="cls-1" d="M3.45,12.65A3.62,3.62,0,0,0,1.93,13a3.32,3.32,0,0,0-.1,5.89,3.26,3.26,0,0,0,1.59.4A3.32,3.32,0,0,0,6.75,16,3.27,3.27,0,0,0,3.45,12.65Z"/><rect class="cls-2" width="32" height="32"/></g></g></g></svg>