<svg width="331" height="154" viewBox="0 0 331 154" fill="none" xmlns="http://www.w3.org/2000/svg">
<g clip-path="url(#clip0_1573_970146)">
<path d="M182.397 41.834H284.515C285.89 41.834 287.015 42.9588 287.015 44.3337V60.0275C287.015 61.4025 285.89 62.5273 284.515 62.5273H182.397" fill="white"/>
<path d="M1.10645 146.846C1.10645 150.351 3.94724 153.191 7.45217 153.191H189.305C192.81 153.191 195.651 150.351 195.651 146.846V143.83H1.10645V146.846Z" fill="black" stroke="white" stroke-width="0.678489" stroke-miterlimit="10"/>
<path d="M182.397 40.0727V41.833H284.515C285.89 41.833 287.015 42.9578 287.015 44.3327V60.0265C287.015 61.4015 285.89 62.5263 284.515 62.5263H182.397V111.386H313.453V9.55868C313.453 4.46702 309.326 0.339844 304.234 0.339844H161.419C156.327 0.339844 152.2 4.46702 152.2 9.55868V27.4615H169.786C176.739 27.4615 182.397 33.1191 182.397 40.0727V40.0727Z" fill="black"/>
<path d="M182.397 113.316V122.676H323.754C327.259 122.676 330.099 119.835 330.099 116.33V113.315H182.397V113.316Z" fill="black"/>
<path d="M179.759 61.3202V40.0728C179.759 34.9812 175.631 30.854 170.54 30.854H27.7257C25.8841 30.854 24.1693 31.3961 22.7297 32.3271C20.1893 33.9688 18.5068 36.824 18.5068 40.0728V141.901H179.759V61.3202Z" fill="black" stroke="white" stroke-width="0.678489" stroke-miterlimit="10"/>
<path d="M149.807 71.8159H46.4299C45.0494 71.8159 43.9302 72.9351 43.9302 74.3157V90.0095C43.9302 91.3901 45.0494 92.5092 46.4299 92.5092H149.807C151.187 92.5092 152.307 91.3901 152.307 90.0095V74.3157C152.307 72.9351 151.187 71.8159 149.807 71.8159Z" fill="white"/>
<path d="M64.4156 80.3199C64.4611 80.4264 64.4838 80.5257 64.4838 80.6166C64.4838 80.6478 64.4754 80.6705 64.4611 80.6849C64.4611 80.8069 64.4299 80.929 64.3701 81.0498C64.3091 81.1719 64.2337 81.27 64.1415 81.3466C64.0506 81.4232 63.9357 81.483 63.7993 81.5297C63.0383 81.7738 61.8895 82.1459 60.3542 82.6473C60.7192 83.1343 61.077 83.6214 61.4264 84.1072C61.7758 84.5942 62.1336 85.0813 62.4986 85.5683C62.574 85.6748 62.6278 85.7885 62.6577 85.9105C62.6721 86.0326 62.6721 86.1546 62.6577 86.2755C62.6422 86.4119 62.6039 86.534 62.5441 86.6405C62.4675 86.747 62.3765 86.8379 62.27 86.9145C62.2389 86.9456 62.2018 86.9684 62.1563 86.9827C62.1109 87.0138 62.0654 87.0366 62.0199 87.0509C61.9589 87.0665 61.9062 87.0737 61.8608 87.0737C61.8153 87.0892 61.7698 87.0964 61.7244 87.0964C61.6478 87.0964 61.5724 87.0892 61.4958 87.0737C61.4348 87.0593 61.3666 87.0282 61.29 86.9827C61.2134 86.9528 61.1536 86.9145 61.1069 86.869C61.0459 86.8236 60.9932 86.7625 60.9477 86.6859C60.4763 86.0469 59.7691 85.0741 58.8261 83.765C58.4611 84.252 58.1034 84.739 57.7539 85.2261C57.4033 85.7131 57.0467 86.2001 56.6818 86.6859C56.6363 86.7625 56.5908 86.8224 56.5453 86.869C56.4843 86.9145 56.4233 86.9528 56.3623 86.9827C56.2857 87.0282 56.2103 87.0593 56.1337 87.0737C56.0727 87.0892 56.0045 87.0964 55.9279 87.0964C55.8669 87.0964 55.8142 87.0892 55.7687 87.0737C55.7233 87.0737 55.6778 87.0665 55.6323 87.0509C55.5713 87.0366 55.5258 87.0126 55.4959 86.9827C55.4504 86.9684 55.405 86.9444 55.3595 86.9145C55.253 86.8391 55.1692 86.747 55.1082 86.6405C55.0472 86.534 55.0017 86.4119 54.9718 86.2755C54.9562 86.1534 54.9634 86.0326 54.9945 85.9105C55.0244 85.7885 55.0783 85.6748 55.1537 85.5683C55.6251 84.9293 56.3323 83.9564 57.2753 82.6473C56.6973 82.4642 56.1265 82.2752 55.5641 82.0765C54.9861 81.8935 54.4082 81.7116 53.8302 81.5285C53.5873 81.4531 53.4042 81.2927 53.2821 81.0498C53.2056 80.9134 53.1685 80.7686 53.1685 80.6166C53.1685 80.5257 53.184 80.4264 53.2139 80.3199C53.3049 80.077 53.4652 79.8939 53.6926 79.7718C53.9355 79.6498 54.1796 79.627 54.4225 79.7036C55.1836 79.9621 56.3312 80.3354 57.8676 80.8213V77.2158C57.8676 76.9418 57.9586 76.7132 58.1416 76.5313C58.3247 76.3495 58.5521 76.2573 58.8261 76.2573C59.0846 76.2573 59.3048 76.3483 59.4879 76.5313C59.6709 76.7144 59.7619 76.9418 59.7619 77.2158V80.8213C60.3399 80.6382 60.9178 80.4563 61.4958 80.2732C62.0738 80.0901 62.6517 79.9011 63.2297 79.7024C63.3518 79.6725 63.4726 79.6569 63.5947 79.6569C63.7168 79.6725 63.8376 79.7108 63.9597 79.7706C64.0662 79.8317 64.1655 79.907 64.2564 79.9992C64.3318 80.0901 64.3857 80.1966 64.4156 80.3187V80.3199Z" fill="black"/>
<path d="M77.5128 80.3199C77.5582 80.4264 77.581 80.5257 77.581 80.6166C77.581 80.6478 77.5726 80.6705 77.5582 80.6849C77.5582 80.8069 77.5271 80.929 77.4673 81.0498C77.4063 81.1719 77.3309 81.27 77.2387 81.3466C77.1478 81.4232 77.0329 81.483 76.8965 81.5297C76.1354 81.7738 74.9867 82.1459 73.4514 82.6473C73.8164 83.1343 74.1742 83.6214 74.5236 84.1072C74.873 84.5942 75.2308 85.0813 75.5958 85.5683C75.6711 85.6748 75.725 85.7885 75.7549 85.9105C75.7693 86.0326 75.7693 86.1546 75.7549 86.2755C75.7393 86.4119 75.7011 86.534 75.6412 86.6405C75.5646 86.747 75.4737 86.8379 75.3672 86.9145C75.3361 86.9456 75.299 86.9684 75.2535 86.9827C75.208 87.0138 75.1626 87.0366 75.1171 87.0509C75.0561 87.0665 75.0034 87.0737 74.9579 87.0737C74.9125 87.0892 74.867 87.0964 74.8215 87.0964C74.7449 87.0964 74.6696 87.0892 74.593 87.0737C74.5319 87.0593 74.4637 87.0282 74.3871 86.9827C74.3106 86.9528 74.2507 86.9145 74.2041 86.869C74.143 86.8236 74.0904 86.7625 74.0449 86.6859C73.5734 86.0469 72.8662 85.0741 71.9233 83.765C71.5583 84.252 71.2005 84.739 70.8511 85.2261C70.5005 85.7131 70.1439 86.2001 69.7789 86.6859C69.7335 86.7625 69.688 86.8224 69.6425 86.869C69.5815 86.9145 69.5205 86.9528 69.4594 86.9827C69.3828 87.0282 69.3075 87.0593 69.2309 87.0737C69.1698 87.0892 69.1016 87.0964 69.0251 87.0964C68.964 87.0964 68.9114 87.0892 68.8659 87.0737C68.8204 87.0737 68.775 87.0665 68.7295 87.0509C68.6685 87.0366 68.623 87.0126 68.5931 86.9827C68.5476 86.9684 68.5021 86.9444 68.4567 86.9145C68.3502 86.8391 68.2664 86.747 68.2054 86.6405C68.1443 86.534 68.0989 86.4119 68.0689 86.2755C68.0534 86.1534 68.0606 86.0326 68.0917 85.9105C68.1216 85.7885 68.1754 85.6748 68.2508 85.5683C68.7223 84.9293 69.4295 83.9564 70.3725 82.6473C69.7945 82.4642 69.2237 82.2752 68.6613 82.0765C68.0833 81.8935 67.5053 81.7116 66.9274 81.5285C66.6844 81.4531 66.5014 81.2927 66.3793 81.0498C66.3027 80.9134 66.2656 80.7686 66.2656 80.6166C66.2656 80.5257 66.2812 80.4264 66.3111 80.3199C66.402 80.077 66.5624 79.8939 66.7897 79.7718C67.0327 79.6498 67.2768 79.627 67.5197 79.7036C68.2808 79.9621 69.4283 80.3354 70.9648 80.8213V77.2158C70.9648 76.9418 71.0557 76.7132 71.2388 76.5313C71.4219 76.3495 71.6493 76.2573 71.9233 76.2573C72.1818 76.2573 72.4019 76.3483 72.585 76.5313C72.7681 76.7144 72.8591 76.9418 72.8591 77.2158V80.8213C73.437 80.6382 74.015 80.4563 74.593 80.2732C75.1709 80.0901 75.7489 79.9011 76.3269 79.7024C76.4489 79.6725 76.5698 79.6569 76.6919 79.6569C76.8139 79.6725 76.9348 79.7108 77.0568 79.7706C77.1633 79.8317 77.2627 79.907 77.3536 79.9992C77.429 80.0901 77.4828 80.1966 77.5128 80.3187V80.3199Z" fill="black"/>
<path d="M90.6109 80.3199C90.6564 80.4264 90.6791 80.5257 90.6791 80.6166C90.6791 80.6478 90.6707 80.6705 90.6564 80.6849C90.6564 80.8069 90.6252 80.929 90.5654 81.0498C90.5044 81.1719 90.429 81.27 90.3369 81.3466C90.2459 81.4232 90.131 81.483 89.9946 81.5297C89.2336 81.7738 88.0848 82.1459 86.5495 82.6473C86.9145 83.1343 87.2723 83.6214 87.6217 84.1072C87.9711 84.5942 88.3289 85.0813 88.6939 85.5683C88.7693 85.6748 88.8231 85.7885 88.853 85.9105C88.8674 86.0326 88.8674 86.1546 88.853 86.2755C88.8375 86.4119 88.7992 86.534 88.7394 86.6405C88.6628 86.747 88.5718 86.8379 88.4653 86.9145C88.4342 86.9456 88.3971 86.9684 88.3517 86.9827C88.3062 87.0138 88.2607 87.0366 88.2152 87.0509C88.1542 87.0665 88.1016 87.0737 88.0561 87.0737C88.0106 87.0892 87.9651 87.0964 87.9197 87.0964C87.8431 87.0964 87.7677 87.0892 87.6911 87.0737C87.6301 87.0593 87.5619 87.0282 87.4853 86.9827C87.4087 86.9528 87.3489 86.9145 87.3022 86.869C87.2412 86.8236 87.1885 86.7625 87.1431 86.6859C86.6716 86.0469 85.9644 85.0741 85.0214 83.765C84.6565 84.252 84.2987 84.739 83.9493 85.2261C83.5986 85.7131 83.242 86.2001 82.8771 86.6859C82.8316 86.7625 82.7861 86.8224 82.7407 86.869C82.6796 86.9145 82.6186 86.9528 82.5576 86.9827C82.481 87.0282 82.4056 87.0593 82.329 87.0737C82.268 87.0892 82.1998 87.0964 82.1232 87.0964C82.0622 87.0964 82.0095 87.0892 81.964 87.0737C81.9186 87.0737 81.8731 87.0665 81.8276 87.0509C81.7666 87.0366 81.7211 87.0126 81.6912 86.9827C81.6457 86.9684 81.6003 86.9444 81.5548 86.9145C81.4483 86.8391 81.3645 86.747 81.3035 86.6405C81.2425 86.534 81.197 86.4119 81.1671 86.2755C81.1515 86.1534 81.1587 86.0326 81.1898 85.9105C81.2197 85.7885 81.2736 85.6748 81.349 85.5683C81.8205 84.9293 82.5277 83.9564 83.4706 82.6473C82.8926 82.4642 82.3218 82.2752 81.7594 82.0765C81.1815 81.8935 80.6035 81.7116 80.0255 81.5285C79.7826 81.4531 79.5995 81.2927 79.4775 81.0498C79.4009 80.9134 79.3638 80.7686 79.3638 80.6166C79.3638 80.5257 79.3793 80.4264 79.4092 80.3199C79.5002 80.077 79.6605 79.8939 79.8879 79.7718C80.1308 79.6498 80.3749 79.627 80.6178 79.7036C81.3789 79.9621 82.5265 80.3354 84.0629 80.8213V77.2158C84.0629 76.9418 84.1539 76.7132 84.337 76.5313C84.52 76.3495 84.7474 76.2573 85.0214 76.2573C85.2799 76.2573 85.5001 76.3483 85.6832 76.5313C85.8663 76.7144 85.9572 76.9418 85.9572 77.2158V80.8213C86.5352 80.6382 87.1131 80.4563 87.6911 80.2732C88.2691 80.0901 88.8471 79.9011 89.425 79.7024C89.5471 79.6725 89.6679 79.6569 89.79 79.6569C89.9121 79.6725 90.0329 79.7108 90.155 79.7706C90.2615 79.8317 90.3608 79.907 90.4517 79.9992C90.5271 80.0901 90.581 80.1966 90.6109 80.3187V80.3199Z" fill="black"/>
<path d="M103.71 80.3199C103.755 80.4264 103.778 80.5257 103.778 80.6166C103.778 80.6478 103.769 80.6705 103.755 80.6849C103.755 80.8069 103.724 80.929 103.664 81.0498C103.603 81.1719 103.528 81.27 103.435 81.3466C103.345 81.4232 103.23 81.483 103.093 81.5297C102.332 81.7738 101.183 82.1459 99.6482 82.6473C100.013 83.1343 100.371 83.6214 100.72 84.1072C101.07 84.5942 101.428 85.0813 101.793 85.5683C101.868 85.6748 101.922 85.7885 101.952 85.9105C101.966 86.0326 101.966 86.1546 101.952 86.2755C101.936 86.4119 101.898 86.534 101.838 86.6405C101.761 86.747 101.67 86.8379 101.564 86.9145C101.533 86.9456 101.496 86.9684 101.45 86.9827C101.405 87.0138 101.359 87.0366 101.314 87.0509C101.253 87.0665 101.2 87.0737 101.155 87.0737C101.109 87.0892 101.064 87.0964 101.018 87.0964C100.942 87.0964 100.866 87.0892 100.79 87.0737C100.729 87.0593 100.661 87.0282 100.584 86.9827C100.507 86.9528 100.448 86.9145 100.401 86.869C100.34 86.8236 100.287 86.7625 100.242 86.6859C99.7702 86.0469 99.063 85.0741 98.1201 83.765C97.7551 84.252 97.3973 84.739 97.0479 85.2261C96.6973 85.7131 96.3407 86.2001 95.9757 86.6859C95.9302 86.7625 95.8848 86.8224 95.8393 86.869C95.7783 86.9145 95.7172 86.9528 95.6562 86.9827C95.5796 87.0282 95.5042 87.0593 95.4276 87.0737C95.3666 87.0892 95.2984 87.0964 95.2218 87.0964C95.1608 87.0964 95.1081 87.0892 95.0627 87.0737C95.0172 87.0737 94.9717 87.0665 94.9263 87.0509C94.8652 87.0366 94.8198 87.0126 94.7898 86.9827C94.7444 86.9684 94.6989 86.9444 94.6534 86.9145C94.5469 86.8391 94.4632 86.747 94.4021 86.6405C94.3411 86.534 94.2956 86.4119 94.2657 86.2755C94.2502 86.1534 94.2573 86.0326 94.2885 85.9105C94.3184 85.7885 94.3722 85.6748 94.4476 85.5683C94.9191 84.9293 95.6263 83.9564 96.5692 82.6473C95.9913 82.4642 95.4205 82.2752 94.858 82.0765C94.2801 81.8935 93.7021 81.7116 93.1241 81.5285C92.8812 81.4531 92.6981 81.2927 92.5761 81.0498C92.4995 80.9134 92.4624 80.7686 92.4624 80.6166C92.4624 80.5257 92.478 80.4264 92.5079 80.3199C92.5988 80.077 92.7592 79.8939 92.9865 79.7718C93.2294 79.6498 93.4736 79.627 93.7165 79.7036C94.4775 79.9621 95.6251 80.3354 97.1616 80.8213V77.2158C97.1616 76.9418 97.2525 76.7132 97.4356 76.5313C97.6187 76.3495 97.846 76.2573 98.1201 76.2573C98.3785 76.2573 98.5987 76.3483 98.7818 76.5313C98.9649 76.7144 99.0558 76.9418 99.0558 77.2158V80.8213C99.6338 80.6382 100.212 80.4563 100.79 80.2732C101.368 80.0901 101.946 79.9011 102.524 79.7024C102.646 79.6725 102.767 79.6569 102.889 79.6569C103.011 79.6725 103.132 79.7108 103.254 79.7706C103.36 79.8317 103.459 79.907 103.55 79.9992C103.626 80.0901 103.68 80.1966 103.71 80.3187V80.3199Z" fill="black"/>
<path d="M116.808 80.3199C116.853 80.4264 116.876 80.5257 116.876 80.6166C116.876 80.6478 116.867 80.6705 116.853 80.6849C116.853 80.8069 116.822 80.929 116.762 81.0498C116.701 81.1719 116.626 81.27 116.534 81.3466C116.443 81.4232 116.328 81.483 116.191 81.5297C115.43 81.7738 114.282 82.1459 112.746 82.6473C113.111 83.1343 113.469 83.6214 113.818 84.1072C114.168 84.5942 114.526 85.0813 114.891 85.5683C114.966 85.6748 115.02 85.7885 115.05 85.9105C115.064 86.0326 115.064 86.1546 115.05 86.2755C115.034 86.4119 114.996 86.534 114.936 86.6405C114.86 86.747 114.769 86.8379 114.662 86.9145C114.631 86.9456 114.594 86.9684 114.548 86.9827C114.503 87.0138 114.457 87.0366 114.412 87.0509C114.351 87.0665 114.298 87.0737 114.253 87.0737C114.207 87.0892 114.162 87.0964 114.116 87.0964C114.04 87.0964 113.964 87.0892 113.888 87.0737C113.827 87.0593 113.759 87.0282 113.682 86.9827C113.605 86.9528 113.546 86.9145 113.499 86.869C113.438 86.8236 113.385 86.7625 113.34 86.6859C112.868 86.0469 112.161 85.0741 111.218 83.765C110.853 84.252 110.495 84.739 110.146 85.2261C109.795 85.7131 109.439 86.2001 109.074 86.6859C109.028 86.7625 108.983 86.8224 108.937 86.869C108.876 86.9145 108.815 86.9528 108.754 86.9827C108.678 87.0282 108.602 87.0593 108.526 87.0737C108.465 87.0892 108.397 87.0964 108.32 87.0964C108.259 87.0964 108.206 87.0892 108.161 87.0737C108.115 87.0737 108.07 87.0665 108.024 87.0509C107.963 87.0366 107.918 87.0126 107.888 86.9827C107.843 86.9684 107.797 86.9444 107.752 86.9145C107.645 86.8391 107.561 86.747 107.5 86.6405C107.439 86.534 107.394 86.4119 107.364 86.2755C107.348 86.1534 107.355 86.0326 107.387 85.9105C107.417 85.7885 107.47 85.6748 107.546 85.5683C108.017 84.9293 108.724 83.9564 109.667 82.6473C109.089 82.4642 108.519 82.2752 107.956 82.0765C107.378 81.8935 106.8 81.7116 106.222 81.5285C105.979 81.4531 105.796 81.2927 105.674 81.0498C105.598 80.9134 105.561 80.7686 105.561 80.6166C105.561 80.5257 105.576 80.4264 105.606 80.3199C105.697 80.077 105.857 79.8939 106.085 79.7718C106.328 79.6498 106.572 79.627 106.815 79.7036C107.576 79.9621 108.723 80.3354 110.26 80.8213V77.2158C110.26 76.9418 110.351 76.7132 110.534 76.5313C110.717 76.3495 110.944 76.2573 111.218 76.2573C111.477 76.2573 111.697 76.3483 111.88 76.5313C112.063 76.7144 112.154 76.9418 112.154 77.2158V80.8213C112.732 80.6382 113.31 80.4563 113.888 80.2732C114.466 80.0901 115.044 79.9011 115.622 79.7024C115.744 79.6725 115.865 79.6569 115.987 79.6569C116.109 79.6725 116.23 79.7108 116.352 79.7706C116.458 79.8317 116.558 79.907 116.649 79.9992C116.724 80.0901 116.778 80.1966 116.808 80.3187V80.3199Z" fill="black"/>
<path d="M129.905 80.3199C129.95 80.4264 129.973 80.5257 129.973 80.6166C129.973 80.6478 129.965 80.6705 129.95 80.6849C129.95 80.8069 129.919 80.929 129.859 81.0498C129.798 81.1719 129.723 81.27 129.631 81.3466C129.54 81.4232 129.425 81.483 129.289 81.5297C128.528 81.7738 127.379 82.1459 125.843 82.6473C126.208 83.1343 126.566 83.6214 126.916 84.1072C127.265 84.5942 127.623 85.0813 127.988 85.5683C128.063 85.6748 128.117 85.7885 128.147 85.9105C128.161 86.0326 128.161 86.1546 128.147 86.2755C128.131 86.4119 128.093 86.534 128.033 86.6405C127.957 86.747 127.866 86.8379 127.759 86.9145C127.728 86.9456 127.691 86.9684 127.646 86.9827C127.6 87.0138 127.555 87.0366 127.509 87.0509C127.448 87.0665 127.395 87.0737 127.35 87.0737C127.305 87.0892 127.259 87.0964 127.214 87.0964C127.137 87.0964 127.062 87.0892 126.985 87.0737C126.924 87.0593 126.856 87.0282 126.779 86.9827C126.703 86.9528 126.643 86.9145 126.596 86.869C126.535 86.8236 126.482 86.7625 126.437 86.6859C125.966 86.0469 125.258 85.0741 124.315 83.765C123.95 84.252 123.593 84.739 123.243 85.2261C122.893 85.7131 122.536 86.2001 122.171 86.6859C122.126 86.7625 122.08 86.8224 122.035 86.869C121.974 86.9145 121.913 86.9528 121.852 86.9827C121.775 87.0282 121.7 87.0593 121.623 87.0737C121.562 87.0892 121.494 87.0964 121.417 87.0964C121.356 87.0964 121.303 87.0892 121.258 87.0737C121.213 87.0737 121.167 87.0665 121.122 87.0509C121.061 87.0366 121.015 87.0126 120.985 86.9827C120.94 86.9684 120.894 86.9444 120.849 86.9145C120.742 86.8391 120.658 86.747 120.597 86.6405C120.536 86.534 120.491 86.4119 120.461 86.2755C120.445 86.1534 120.453 86.0326 120.484 85.9105C120.514 85.7885 120.568 85.6748 120.643 85.5683C121.114 84.9293 121.822 83.9564 122.765 82.6473C122.187 82.4642 121.616 82.2752 121.053 82.0765C120.475 81.8935 119.897 81.7116 119.319 81.5285C119.077 81.4531 118.893 81.2927 118.771 81.0498C118.695 80.9134 118.658 80.7686 118.658 80.6166C118.658 80.5257 118.673 80.4264 118.703 80.3199C118.794 80.077 118.954 79.8939 119.182 79.7718C119.425 79.6498 119.669 79.627 119.912 79.7036C120.673 79.9621 121.82 80.3354 123.357 80.8213V77.2158C123.357 76.9418 123.448 76.7132 123.631 76.5313C123.814 76.3495 124.041 76.2573 124.315 76.2573C124.574 76.2573 124.794 76.3483 124.977 76.5313C125.16 76.7144 125.251 76.9418 125.251 77.2158V80.8213C125.829 80.6382 126.407 80.4563 126.985 80.2732C127.563 80.0901 128.141 79.9011 128.719 79.7024C128.841 79.6725 128.962 79.6569 129.084 79.6569C129.206 79.6725 129.327 79.7108 129.449 79.7706C129.555 79.8317 129.655 79.907 129.746 79.9992C129.821 80.0901 129.875 80.1966 129.905 80.3187V80.3199Z" fill="black"/>
<path d="M143.003 80.3199C143.048 80.4264 143.071 80.5257 143.071 80.6166C143.071 80.6478 143.063 80.6705 143.048 80.6849C143.048 80.8069 143.017 80.929 142.958 81.0498C142.896 81.1719 142.821 81.27 142.729 81.3466C142.638 81.4232 142.523 81.483 142.387 81.5297C141.626 81.7738 140.477 82.1459 138.942 82.6473C139.307 83.1343 139.664 83.6214 140.014 84.1072C140.363 84.5942 140.721 85.0813 141.086 85.5683C141.161 85.6748 141.215 85.7885 141.245 85.9105C141.259 86.0326 141.259 86.1546 141.245 86.2755C141.23 86.4119 141.191 86.534 141.131 86.6405C141.055 86.747 140.964 86.8379 140.857 86.9145C140.826 86.9456 140.789 86.9684 140.744 86.9827C140.698 87.0138 140.653 87.0366 140.607 87.0509C140.546 87.0665 140.494 87.0737 140.448 87.0737C140.403 87.0892 140.357 87.0964 140.312 87.0964C140.235 87.0964 140.16 87.0892 140.083 87.0737C140.022 87.0593 139.954 87.0282 139.877 86.9827C139.801 86.9528 139.741 86.9145 139.694 86.869C139.633 86.8236 139.581 86.7625 139.535 86.6859C139.064 86.0469 138.356 85.0741 137.414 83.765C137.049 84.252 136.691 84.739 136.341 85.2261C135.991 85.7131 135.634 86.2001 135.269 86.6859C135.224 86.7625 135.178 86.8224 135.133 86.869C135.072 86.9145 135.011 86.9528 134.95 86.9827C134.873 87.0282 134.798 87.0593 134.721 87.0737C134.66 87.0892 134.592 87.0964 134.515 87.0964C134.454 87.0964 134.402 87.0892 134.356 87.0737C134.311 87.0737 134.265 87.0665 134.22 87.0509C134.159 87.0366 134.113 87.0126 134.083 86.9827C134.038 86.9684 133.992 86.9444 133.947 86.9145C133.84 86.8391 133.757 86.747 133.696 86.6405C133.635 86.534 133.589 86.4119 133.559 86.2755C133.544 86.1534 133.551 86.0326 133.582 85.9105C133.612 85.7885 133.666 85.6748 133.741 85.5683C134.213 84.9293 134.92 83.9564 135.863 82.6473C135.285 82.4642 134.714 82.2752 134.152 82.0765C133.574 81.8935 132.996 81.7116 132.418 81.5285C132.175 81.4531 131.992 81.2927 131.87 81.0498C131.793 80.9134 131.756 80.7686 131.756 80.6166C131.756 80.5257 131.771 80.4264 131.801 80.3199C131.892 80.077 132.053 79.8939 132.28 79.7718C132.523 79.6498 132.767 79.627 133.01 79.7036C133.771 79.9621 134.919 80.3354 136.455 80.8213V77.2158C136.455 76.9418 136.546 76.7132 136.729 76.5313C136.912 76.3495 137.139 76.2573 137.414 76.2573C137.672 76.2573 137.892 76.3483 138.075 76.5313C138.258 76.7144 138.349 76.9418 138.349 77.2158V80.8213C138.927 80.6382 139.505 80.4563 140.083 80.2732C140.661 80.0901 141.239 79.9011 141.817 79.7024C141.939 79.6725 142.06 79.6569 142.182 79.6569C142.304 79.6725 142.425 79.7108 142.547 79.7706C142.654 79.8317 142.753 79.907 142.844 79.9992C142.919 80.0901 142.973 80.1966 143.003 80.3187V80.3199Z" fill="black"/>
<path d="M107.026 103.086V107.941H102.171" stroke="#009900" stroke-width="1.35698" stroke-linecap="round" stroke-linejoin="round"/>
<path d="M89.2373 116.031V111.177H94.092" stroke="#009900" stroke-width="1.35698" stroke-linecap="round" stroke-linejoin="round"/>
<path d="M91.2658 107.132C91.9108 105.315 93.251 103.827 94.9921 102.995C96.7332 102.165 98.7328 102.058 100.552 102.701C101.575 103.061 102.502 103.648 103.266 104.418L107 107.941M89.2124 111.178L92.9471 114.701C93.8158 115.57 94.8916 116.205 96.0727 116.547C97.2538 116.89 98.5018 116.927 99.7009 116.655C100.9 116.385 102.012 115.814 102.931 114.998C103.85 114.182 104.548 113.145 104.959 111.987" stroke="#009900" stroke-width="1.35698" stroke-linecap="round" stroke-linejoin="round"/>
<path d="M193.533 46.2773C193.73 46.2773 193.913 46.3312 194.081 46.4365C194.248 46.5274 194.378 46.6722 194.469 46.8697C194.56 47.0671 194.652 47.2658 194.743 47.4632C194.834 47.6606 194.933 47.8593 195.039 48.0567C195.313 47.9502 195.731 47.8054 196.295 47.6236C196.478 47.5482 196.667 47.5326 196.865 47.5781C197.048 47.6236 197.215 47.7145 197.368 47.8521C197.504 48.0041 197.597 48.1716 197.642 48.3547C197.687 48.5521 197.672 48.7424 197.597 48.9255C197.536 49.1385 197.467 49.3515 197.391 49.5645C197.314 49.7775 197.239 49.9833 197.162 50.1807C197.436 50.3172 197.831 50.5086 198.349 50.7515C198.547 50.8425 198.691 50.9717 198.782 51.1392C198.889 51.3068 198.942 51.4899 198.942 51.6873C198.942 51.9003 198.888 52.0906 198.782 52.2581C198.691 52.4101 198.547 52.5321 198.349 52.6231C198.152 52.7296 197.953 52.8289 197.756 52.9198C197.558 53.0108 197.36 53.1029 197.162 53.1939C197.269 53.4834 197.413 53.9011 197.595 54.4491C197.671 54.6466 197.686 54.8368 197.641 55.0199C197.595 55.2174 197.504 55.3849 197.367 55.5225C197.215 55.6745 197.047 55.7738 196.864 55.8193C196.667 55.8504 196.477 55.8348 196.293 55.7738C196.08 55.6984 195.867 55.6218 195.654 55.5452C195.441 55.4842 195.236 55.416 195.038 55.3394C194.902 55.5979 194.71 55.994 194.467 56.5265C194.376 56.7096 194.247 56.8544 194.08 56.9597C193.912 57.0662 193.729 57.1188 193.532 57.1188C193.319 57.1188 193.128 57.0662 192.961 56.9597C192.809 56.8532 192.687 56.7084 192.596 56.5265C192.489 56.329 192.39 56.1316 192.299 55.9329C192.208 55.7355 192.116 55.5381 192.025 55.3394C191.735 55.4304 191.318 55.5752 190.77 55.7726C190.572 55.8336 190.382 55.8492 190.199 55.8181C190.002 55.7726 189.834 55.6733 189.696 55.5213C189.544 55.3849 189.445 55.2174 189.4 55.0187C189.369 54.8356 189.384 54.6466 189.445 54.4479C189.52 54.2349 189.597 54.0291 189.674 53.8317C189.735 53.6187 189.803 53.4057 189.879 53.1927C189.621 53.0706 189.225 52.8815 188.692 52.6219C188.509 52.5309 188.365 52.4089 188.259 52.2569C188.153 52.0894 188.1 51.8991 188.1 51.6861C188.1 51.4887 188.153 51.3056 188.259 51.1381C188.366 50.9705 188.511 50.8413 188.692 50.7503C188.89 50.6594 189.087 50.5673 189.286 50.4763C189.483 50.3854 189.681 50.2861 189.879 50.1796C189.789 49.9055 189.644 49.4879 189.446 48.9243C189.385 48.7412 189.37 48.5521 189.401 48.3535C189.446 48.1704 189.546 48.0041 189.698 47.8509C189.834 47.7145 190.002 47.6224 190.2 47.5769C190.383 47.5314 190.572 47.547 190.771 47.6224C190.984 47.6834 191.19 47.7516 191.387 47.8282C191.6 47.9048 191.813 47.9801 192.026 48.0567C192.148 47.7827 192.337 47.3878 192.597 46.8697C192.688 46.6722 192.81 46.5274 192.962 46.4365C193.13 46.33 193.32 46.2773 193.533 46.2773Z" fill="black"/>
<path d="M206.63 46.2773C206.827 46.2773 207.011 46.3312 207.178 46.4365C207.346 46.5274 207.475 46.6722 207.566 46.8697C207.657 47.0671 207.749 47.2658 207.84 47.4632C207.931 47.6606 208.03 47.8593 208.137 48.0567C208.411 47.9502 208.828 47.8054 209.392 47.6236C209.575 47.5482 209.764 47.5326 209.963 47.5781C210.146 47.6236 210.312 47.7145 210.465 47.8521C210.602 48.0041 210.694 48.1716 210.739 48.3547C210.785 48.5521 210.769 48.7424 210.694 48.9255C210.633 49.1385 210.564 49.3515 210.488 49.5645C210.411 49.7775 210.336 49.9833 210.259 50.1807C210.533 50.3172 210.928 50.5086 211.446 50.7515C211.644 50.8425 211.789 50.9717 211.88 51.1392C211.986 51.3068 212.039 51.4899 212.039 51.6873C212.039 51.9003 211.985 52.0906 211.88 52.2581C211.789 52.4101 211.644 52.5321 211.446 52.6231C211.249 52.7296 211.05 52.8289 210.853 52.9198C210.655 53.0108 210.457 53.1029 210.259 53.1939C210.366 53.4834 210.511 53.9011 210.693 54.4491C210.768 54.6466 210.783 54.8368 210.738 55.0199C210.693 55.2174 210.602 55.3849 210.464 55.5225C210.312 55.6745 210.144 55.7738 209.961 55.8193C209.764 55.8504 209.574 55.8348 209.391 55.7738C209.178 55.6984 208.965 55.6218 208.752 55.5452C208.539 55.4842 208.333 55.416 208.135 55.3394C207.999 55.5979 207.807 55.994 207.565 56.5265C207.474 56.7096 207.344 56.8544 207.177 56.9597C207.009 57.0662 206.826 57.1188 206.629 57.1188C206.416 57.1188 206.226 57.0662 206.058 56.9597C205.906 56.8532 205.784 56.7084 205.693 56.5265C205.587 56.329 205.487 56.1316 205.396 55.9329C205.305 55.7355 205.213 55.5381 205.122 55.3394C204.833 55.4304 204.415 55.5752 203.867 55.7726C203.67 55.8336 203.479 55.8492 203.296 55.8181C203.099 55.7726 202.931 55.6733 202.794 55.5213C202.642 55.3849 202.542 55.2174 202.497 55.0187C202.466 54.8356 202.481 54.6466 202.542 54.4479C202.618 54.2349 202.694 54.0291 202.771 53.8317C202.832 53.6187 202.9 53.4057 202.977 53.1927C202.718 53.0706 202.322 52.8815 201.79 52.6219C201.607 52.5309 201.462 52.4089 201.356 52.2569C201.25 52.0894 201.197 51.8991 201.197 51.6861C201.197 51.4887 201.25 51.3056 201.356 51.1381C201.463 50.9705 201.608 50.8413 201.79 50.7503C201.987 50.6594 202.184 50.5673 202.383 50.4763C202.581 50.3854 202.778 50.2861 202.977 50.1796C202.886 49.9055 202.741 49.4879 202.543 48.9243C202.482 48.7412 202.467 48.5521 202.498 48.3535C202.543 48.1704 202.643 48.0041 202.795 47.8509C202.931 47.7145 203.099 47.6224 203.297 47.5769C203.48 47.5314 203.67 47.547 203.868 47.6224C204.081 47.6834 204.287 47.7516 204.484 47.8282C204.697 47.9048 204.91 47.9801 205.123 48.0567C205.245 47.7827 205.435 47.3878 205.694 46.8697C205.785 46.6722 205.907 46.5274 206.059 46.4365C206.227 46.33 206.417 46.2773 206.63 46.2773Z" fill="black"/>
<path d="M219.728 46.2773C219.926 46.2773 220.109 46.3312 220.276 46.4365C220.444 46.5274 220.573 46.6722 220.664 46.8697C220.755 47.0671 220.847 47.2658 220.938 47.4632C221.029 47.6606 221.128 47.8593 221.235 48.0567C221.509 47.9502 221.926 47.8054 222.49 47.6236C222.673 47.5482 222.862 47.5326 223.061 47.5781C223.244 47.6236 223.41 47.7145 223.563 47.8521C223.7 48.0041 223.792 48.1716 223.837 48.3547C223.883 48.5521 223.867 48.7424 223.792 48.9255C223.731 49.1385 223.663 49.3515 223.586 49.5645C223.509 49.7775 223.434 49.9833 223.357 50.1807C223.632 50.3172 224.026 50.5086 224.545 50.7515C224.742 50.8425 224.887 50.9717 224.978 51.1392C225.084 51.3068 225.137 51.4899 225.137 51.6873C225.137 51.9003 225.083 52.0906 224.978 52.2581C224.887 52.4101 224.742 52.5321 224.545 52.6231C224.347 52.7296 224.148 52.8289 223.951 52.9198C223.754 53.0108 223.555 53.1029 223.357 53.1939C223.464 53.4834 223.609 53.9011 223.791 54.4491C223.866 54.6466 223.882 54.8368 223.836 55.0199C223.791 55.2174 223.7 55.3849 223.562 55.5225C223.41 55.6745 223.243 55.7738 223.06 55.8193C222.862 55.8504 222.672 55.8348 222.489 55.7738C222.276 55.6984 222.063 55.6218 221.85 55.5452C221.637 55.4842 221.431 55.416 221.233 55.3394C221.097 55.5979 220.906 55.994 220.663 56.5265C220.572 56.7096 220.442 56.8544 220.275 56.9597C220.107 57.0662 219.924 57.1188 219.727 57.1188C219.514 57.1188 219.324 57.0662 219.156 56.9597C219.004 56.8532 218.882 56.7084 218.791 56.5265C218.685 56.329 218.585 56.1316 218.494 55.9329C218.403 55.7355 218.311 55.5381 218.22 55.3394C217.931 55.4304 217.513 55.5752 216.965 55.7726C216.768 55.8336 216.577 55.8492 216.394 55.8181C216.197 55.7726 216.029 55.6733 215.892 55.5213C215.74 55.3849 215.64 55.2174 215.595 55.0187C215.564 54.8356 215.579 54.6466 215.64 54.4479C215.716 54.2349 215.792 54.0291 215.869 53.8317C215.93 53.6187 215.998 53.4057 216.075 53.1927C215.816 53.0706 215.42 52.8815 214.888 52.6219C214.705 52.5309 214.56 52.4089 214.455 52.2569C214.348 52.0894 214.295 51.8991 214.295 51.6861C214.295 51.4887 214.348 51.3056 214.455 51.1381C214.561 50.9705 214.706 50.8413 214.888 50.7503C215.085 50.6594 215.283 50.5673 215.481 50.4763C215.679 50.3854 215.876 50.2861 216.075 50.1796C215.984 49.9055 215.839 49.4879 215.642 48.9243C215.581 48.7412 215.565 48.5521 215.596 48.3535C215.642 48.1704 215.741 48.0041 215.893 47.8509C216.029 47.7145 216.197 47.6224 216.395 47.5769C216.579 47.5314 216.768 47.547 216.966 47.6224C217.179 47.6834 217.385 47.7516 217.583 47.8282C217.796 47.9048 218.009 47.9801 218.222 48.0567C218.344 47.7827 218.533 47.3878 218.792 46.8697C218.883 46.6722 219.005 46.5274 219.157 46.4365C219.325 46.33 219.515 46.2773 219.728 46.2773Z" fill="black"/>
<path d="M232.827 46.2773C233.024 46.2773 233.207 46.3312 233.375 46.4365C233.542 46.5274 233.672 46.6722 233.763 46.8697C233.853 47.0671 233.946 47.2658 234.037 47.4632C234.127 47.6606 234.227 47.8593 234.333 48.0567C234.607 47.9502 235.025 47.8054 235.589 47.6236C235.772 47.5482 235.961 47.5326 236.159 47.5781C236.342 47.6236 236.509 47.7145 236.662 47.8521C236.798 48.0041 236.89 48.1716 236.936 48.3547C236.981 48.5521 236.966 48.7424 236.89 48.9255C236.829 49.1385 236.761 49.3515 236.685 49.5645C236.608 49.7775 236.533 49.9833 236.456 50.1807C236.73 50.3172 237.125 50.5086 237.643 50.7515C237.841 50.8425 237.985 50.9717 238.076 51.1392C238.183 51.3068 238.236 51.4899 238.236 51.6873C238.236 51.9003 238.182 52.0906 238.076 52.2581C237.985 52.4101 237.841 52.5321 237.643 52.6231C237.446 52.7296 237.247 52.8289 237.05 52.9198C236.852 53.0108 236.654 53.1029 236.456 53.1939C236.563 53.4834 236.707 53.9011 236.889 54.4491C236.965 54.6466 236.98 54.8368 236.935 55.0199C236.889 55.2174 236.798 55.3849 236.661 55.5225C236.509 55.6745 236.341 55.7738 236.158 55.8193C235.961 55.8504 235.77 55.8348 235.587 55.7738C235.374 55.6984 235.161 55.6218 234.948 55.5452C234.735 55.4842 234.53 55.416 234.332 55.3394C234.196 55.5979 234.004 55.994 233.761 56.5265C233.67 56.7096 233.541 56.8544 233.374 56.9597C233.206 57.0662 233.023 57.1188 232.826 57.1188C232.613 57.1188 232.422 57.0662 232.255 56.9597C232.103 56.8532 231.981 56.7084 231.89 56.5265C231.783 56.329 231.684 56.1316 231.593 55.9329C231.502 55.7355 231.41 55.5381 231.319 55.3394C231.029 55.4304 230.612 55.5752 230.064 55.7726C229.866 55.8336 229.676 55.8492 229.493 55.8181C229.295 55.7726 229.128 55.6733 228.99 55.5213C228.838 55.3849 228.739 55.2174 228.694 55.0187C228.662 54.8356 228.678 54.6466 228.739 54.4479C228.814 54.2349 228.891 54.0291 228.968 53.8317C229.029 53.6187 229.097 53.4057 229.173 53.1927C228.915 53.0706 228.519 52.8815 227.986 52.6219C227.803 52.5309 227.658 52.4089 227.553 52.2569C227.447 52.0894 227.394 51.8991 227.394 51.6861C227.394 51.4887 227.447 51.3056 227.553 51.1381C227.66 50.9705 227.804 50.8413 227.986 50.7503C228.184 50.6594 228.381 50.5673 228.58 50.4763C228.777 50.3854 228.975 50.2861 229.173 50.1796C229.082 49.9055 228.938 49.4879 228.74 48.9243C228.679 48.7412 228.664 48.5521 228.695 48.3535C228.74 48.1704 228.84 48.0041 228.992 47.8509C229.128 47.7145 229.295 47.6224 229.494 47.5769C229.677 47.5314 229.866 47.547 230.065 47.6224C230.278 47.6834 230.484 47.7516 230.681 47.8282C230.894 47.9048 231.107 47.9801 231.32 48.0567C231.442 47.7827 231.631 47.3878 231.891 46.8697C231.982 46.6722 232.104 46.5274 232.256 46.4365C232.423 46.33 232.614 46.2773 232.827 46.2773Z" fill="black"/>
<path d="M245.925 46.2773C246.122 46.2773 246.305 46.3312 246.473 46.4365C246.64 46.5274 246.77 46.6722 246.861 46.8697C246.952 47.0671 247.044 47.2658 247.135 47.4632C247.226 47.6606 247.325 47.8593 247.431 48.0567C247.705 47.9502 248.123 47.8054 248.687 47.6236C248.87 47.5482 249.059 47.5326 249.258 47.5781C249.441 47.6236 249.607 47.7145 249.76 47.8521C249.897 48.0041 249.989 48.1716 250.034 48.3547C250.08 48.5521 250.064 48.7424 249.989 48.9255C249.928 49.1385 249.859 49.3515 249.783 49.5645C249.706 49.7775 249.631 49.9833 249.554 50.1807C249.828 50.3172 250.223 50.5086 250.741 50.7515C250.939 50.8425 251.084 50.9717 251.175 51.1392C251.281 51.3068 251.334 51.4899 251.334 51.6873C251.334 51.9003 251.28 52.0906 251.175 52.2581C251.084 52.4101 250.939 52.5321 250.741 52.6231C250.544 52.7296 250.345 52.8289 250.148 52.9198C249.95 53.0108 249.752 53.1029 249.554 53.1939C249.661 53.4834 249.806 53.9011 249.987 54.4491C250.063 54.6466 250.078 54.8368 250.033 55.0199C249.987 55.2174 249.897 55.3849 249.759 55.5225C249.607 55.6745 249.439 55.7738 249.256 55.8193C249.059 55.8504 248.869 55.8348 248.686 55.7738C248.473 55.6984 248.26 55.6218 248.047 55.5452C247.834 55.4842 247.628 55.416 247.43 55.3394C247.294 55.5979 247.102 55.994 246.859 56.5265C246.769 56.7096 246.639 56.8544 246.472 56.9597C246.304 57.0662 246.121 57.1188 245.924 57.1188C245.711 57.1188 245.52 57.0662 245.353 56.9597C245.201 56.8532 245.079 56.7084 244.988 56.5265C244.881 56.329 244.782 56.1316 244.691 55.9329C244.6 55.7355 244.508 55.5381 244.417 55.3394C244.128 55.4304 243.71 55.5752 243.162 55.7726C242.964 55.8336 242.774 55.8492 242.591 55.8181C242.394 55.7726 242.226 55.6733 242.089 55.5213C241.937 55.3849 241.837 55.2174 241.792 55.0187C241.761 54.8356 241.776 54.6466 241.837 54.4479C241.913 54.2349 241.989 54.0291 242.066 53.8317C242.127 53.6187 242.195 53.4057 242.272 53.1927C242.013 53.0706 241.617 52.8815 241.085 52.6219C240.901 52.5309 240.757 52.4089 240.651 52.2569C240.545 52.0894 240.492 51.8991 240.492 51.6861C240.492 51.4887 240.545 51.3056 240.651 51.1381C240.758 50.9705 240.903 50.8413 241.085 50.7503C241.282 50.6594 241.479 50.5673 241.678 50.4763C241.875 50.3854 242.073 50.2861 242.272 50.1796C242.181 49.9055 242.036 49.4879 241.838 48.9243C241.777 48.7412 241.762 48.5521 241.793 48.3535C241.838 48.1704 241.938 48.0041 242.09 47.8509C242.226 47.7145 242.394 47.6224 242.592 47.5769C242.775 47.5314 242.964 47.547 243.163 47.6224C243.376 47.6834 243.582 47.7516 243.779 47.8282C243.992 47.9048 244.205 47.9801 244.418 48.0567C244.54 47.7827 244.729 47.3878 244.989 46.8697C245.08 46.6722 245.202 46.5274 245.354 46.4365C245.522 46.33 245.712 46.2773 245.925 46.2773Z" fill="black"/>
<path d="M259.023 46.2773C259.22 46.2773 259.404 46.3312 259.571 46.4365C259.739 46.5274 259.868 46.6722 259.959 46.8697C260.05 47.0671 260.142 47.2658 260.233 47.4632C260.324 47.6606 260.423 47.8593 260.53 48.0567C260.804 47.9502 261.221 47.8054 261.785 47.6236C261.968 47.5482 262.157 47.5326 262.356 47.5781C262.539 47.6236 262.705 47.7145 262.858 47.8521C262.995 48.0041 263.087 48.1716 263.132 48.3547C263.178 48.5521 263.162 48.7424 263.087 48.9255C263.026 49.1385 262.958 49.3515 262.881 49.5645C262.804 49.7775 262.729 49.9833 262.652 50.1807C262.926 50.3172 263.321 50.5086 263.839 50.7515C264.037 50.8425 264.182 50.9717 264.273 51.1392C264.379 51.3068 264.432 51.4899 264.432 51.6873C264.432 51.9003 264.378 52.0906 264.273 52.2581C264.182 52.4101 264.037 52.5321 263.839 52.6231C263.642 52.7296 263.443 52.8289 263.246 52.9198C263.048 53.0108 262.85 53.1029 262.652 53.1939C262.759 53.4834 262.904 53.9011 263.086 54.4491C263.161 54.6466 263.177 54.8368 263.131 55.0199C263.086 55.2174 262.995 55.3849 262.857 55.5225C262.705 55.6745 262.538 55.7738 262.354 55.8193C262.157 55.8504 261.967 55.8348 261.784 55.7738C261.571 55.6984 261.358 55.6218 261.145 55.5452C260.932 55.4842 260.726 55.416 260.528 55.3394C260.392 55.5979 260.201 55.994 259.958 56.5265C259.867 56.7096 259.737 56.8544 259.57 56.9597C259.402 57.0662 259.219 57.1188 259.022 57.1188C258.809 57.1188 258.619 57.0662 258.451 56.9597C258.299 56.8532 258.177 56.7084 258.086 56.5265C257.98 56.329 257.88 56.1316 257.789 55.9329C257.698 55.7355 257.606 55.5381 257.515 55.3394C257.226 55.4304 256.808 55.5752 256.26 55.7726C256.063 55.8336 255.872 55.8492 255.689 55.8181C255.492 55.7726 255.324 55.6733 255.187 55.5213C255.035 55.3849 254.935 55.2174 254.89 55.0187C254.859 54.8356 254.874 54.6466 254.935 54.4479C255.011 54.2349 255.087 54.0291 255.164 53.8317C255.225 53.6187 255.293 53.4057 255.37 53.1927C255.111 53.0706 254.715 52.8815 254.183 52.6219C254 52.5309 253.855 52.4089 253.749 52.2569C253.643 52.0894 253.59 51.8991 253.59 51.6861C253.59 51.4887 253.643 51.3056 253.749 51.1381C253.856 50.9705 254.001 50.8413 254.183 50.7503C254.38 50.6594 254.578 50.5673 254.776 50.4763C254.974 50.3854 255.171 50.2861 255.37 50.1796C255.279 49.9055 255.134 49.4879 254.937 48.9243C254.876 48.7412 254.86 48.5521 254.891 48.3535C254.937 48.1704 255.036 48.0041 255.188 47.8509C255.324 47.7145 255.492 47.6224 255.69 47.5769C255.874 47.5314 256.063 47.547 256.261 47.6224C256.474 47.6834 256.68 47.7516 256.877 47.8282C257.09 47.9048 257.303 47.9801 257.516 48.0567C257.639 47.7827 257.828 47.3878 258.087 46.8697C258.178 46.6722 258.3 46.5274 258.452 46.4365C258.62 46.33 258.81 46.2773 259.023 46.2773Z" fill="black"/>
<path d="M272.12 46.2773C272.318 46.2773 272.501 46.3312 272.668 46.4365C272.836 46.5274 272.965 46.6722 273.056 46.8697C273.147 47.0671 273.239 47.2658 273.33 47.4632C273.421 47.6606 273.52 47.8593 273.627 48.0567C273.901 47.9502 274.318 47.8054 274.882 47.6236C275.065 47.5482 275.254 47.5326 275.453 47.5781C275.636 47.6236 275.802 47.7145 275.955 47.8521C276.092 48.0041 276.184 48.1716 276.229 48.3547C276.275 48.5521 276.259 48.7424 276.184 48.9255C276.123 49.1385 276.055 49.3515 275.978 49.5645C275.902 49.7775 275.826 49.9833 275.75 50.1807C276.024 50.3172 276.418 50.5086 276.937 50.7515C277.134 50.8425 277.279 50.9717 277.37 51.1392C277.476 51.3068 277.529 51.4899 277.529 51.6873C277.529 51.9003 277.475 52.0906 277.37 52.2581C277.279 52.4101 277.134 52.5321 276.937 52.6231C276.739 52.7296 276.541 52.8289 276.343 52.9198C276.146 53.0108 275.947 53.1029 275.75 53.1939C275.856 53.4834 276.001 53.9011 276.183 54.4491C276.258 54.6466 276.274 54.8368 276.228 55.0199C276.183 55.2174 276.092 55.3849 275.954 55.5225C275.802 55.6745 275.635 55.7738 275.452 55.8193C275.254 55.8504 275.064 55.8348 274.881 55.7738C274.668 55.6984 274.455 55.6218 274.242 55.5452C274.029 55.4842 273.823 55.416 273.626 55.3394C273.489 55.5979 273.298 55.994 273.055 56.5265C272.964 56.7096 272.835 56.8544 272.667 56.9597C272.5 57.0662 272.316 57.1188 272.119 57.1188C271.906 57.1188 271.716 57.0662 271.548 56.9597C271.396 56.8532 271.274 56.7084 271.183 56.5265C271.077 56.329 270.977 56.1316 270.886 55.9329C270.796 55.7355 270.703 55.5381 270.612 55.3394C270.323 55.4304 269.905 55.5752 269.357 55.7726C269.16 55.8336 268.969 55.8492 268.786 55.8181C268.589 55.7726 268.421 55.6733 268.284 55.5213C268.132 55.3849 268.033 55.2174 267.987 55.0187C267.956 54.8356 267.971 54.6466 268.033 54.4479C268.108 54.2349 268.184 54.0291 268.261 53.8317C268.322 53.6187 268.39 53.4057 268.467 53.1927C268.208 53.0706 267.812 52.8815 267.28 52.6219C267.097 52.5309 266.952 52.4089 266.847 52.2569C266.74 52.0894 266.688 51.8991 266.688 51.6861C266.688 51.4887 266.74 51.3056 266.847 51.1381C266.953 50.9705 267.098 50.8413 267.28 50.7503C267.477 50.6594 267.675 50.5673 267.873 50.4763C268.071 50.3854 268.268 50.2861 268.467 50.1796C268.376 49.9055 268.231 49.4879 268.034 48.9243C267.973 48.7412 267.957 48.5521 267.988 48.3535C268.034 48.1704 268.133 48.0041 268.285 47.8509C268.421 47.7145 268.589 47.6224 268.788 47.5769C268.971 47.5314 269.16 47.547 269.358 47.6224C269.571 47.6834 269.777 47.7516 269.975 47.8282C270.188 47.9048 270.401 47.9801 270.614 48.0567C270.736 47.7827 270.925 47.3878 271.184 46.8697C271.275 46.6722 271.397 46.5274 271.549 46.4365C271.717 46.33 271.907 46.2773 272.12 46.2773Z" fill="black"/>
<path d="M231.421 72.8113L224.486 84.3971C224.378 84.5826 224.309 84.7884 224.28 85.0014C224.253 85.2144 224.267 85.431 224.322 85.638C224.378 85.845 224.474 86.0401 224.606 86.21C224.737 86.3799 224.9 86.5223 225.087 86.63C225.327 86.7748 225.604 86.8514 225.885 86.8514H239.765C239.98 86.8502 240.193 86.8059 240.392 86.7209C240.59 86.636 240.77 86.5139 240.921 86.3596C241.071 86.2052 241.19 86.0233 241.27 85.8235C241.35 85.6236 241.39 85.4094 241.386 85.194C241.386 84.9128 241.311 84.6364 241.165 84.3959L234.23 72.8101C234.119 72.6246 233.973 72.4631 233.798 72.3339C233.625 72.2058 233.426 72.1125 233.217 72.061C233.006 72.0096 232.788 72 232.575 72.0347C232.361 72.0682 232.156 72.1448 231.972 72.2573C231.747 72.3961 231.558 72.5852 231.421 72.8101V72.8113Z" stroke="#DD6A00" stroke-width="1.35698" stroke-linecap="round" stroke-linejoin="round"/>
<path d="M232.832 77.02V80.2964" stroke="#DD6A00" stroke-width="1.35698" stroke-linecap="round" stroke-linejoin="round"/>
<path d="M232.832 83.5737H232.844" stroke="#DD6A00" stroke-width="1.35698" stroke-linecap="round" stroke-linejoin="round"/>
<path d="M182.397 111.386H313.453V9.55868C313.453 4.46702 309.326 0.339844 304.234 0.339844H161.419C156.327 0.339844 152.2 4.46702 152.2 9.55868V27.4615" stroke="white" stroke-width="0.678489" stroke-miterlimit="10"/>
<path d="M182.397 122.676H323.754C327.259 122.676 330.1 119.835 330.1 116.33V113.315H182.397" stroke="white" stroke-width="0.678489" stroke-miterlimit="10"/>
</g>
<defs>
<clipPath id="clip0_1573_970146">
<rect width="329.67" height="153.53" fill="white" transform="translate(0.768066)"/>
</clipPath>
</defs>
</svg>
