<svg width="251" height="166" viewBox="0 0 251 166" fill="none" xmlns="http://www.w3.org/2000/svg">
<path d="M0.597656 2C0.597656 0.895429 1.49309 0 2.59766 0H248.598C249.702 0 250.598 0.89543 250.598 2V164C250.598 165.105 249.702 166 248.598 166H2.59766C1.49309 166 0.597656 165.105 0.597656 164V2Z" fill="#F6F1E5"/>
<path d="M7.50506 9.51556V11.5019H8.06062C8.42925 11.5019 8.68446 11.4213 8.83782 11.2682C8.99118 11.1152 9.06467 10.8476 9.06467 10.4848C9.06467 10.1343 8.99638 9.88596 8.8546 9.74224C8.71282 9.58684 8.47497 9.5179 8.12891 9.5179L7.50506 9.51556ZM6.59766 8.76074H8.34419C8.87196 8.76074 9.27995 8.91673 9.57509 9.23338C9.87023 9.55003 10.0172 9.98762 10.0172 10.5461C10.0207 10.7612 9.99006 10.9754 9.92636 11.1806C9.86611 11.3714 9.77199 11.5496 9.64858 11.7064C9.50856 11.8866 9.32503 12.0274 9.1156 12.1154C8.90553 12.196 8.63354 12.2363 8.28747 12.2363H7.50506V13.5H6.59766V8.76074Z" fill="black"/>
<path d="M11.8439 11.5422H12.9782V10.8225H11.9122C11.7021 10.8225 11.5551 10.8511 11.4753 10.9089C11.3954 10.9668 11.3595 11.0702 11.3595 11.2139C11.3595 11.3348 11.3931 11.4213 11.4556 11.4727C11.5181 11.5241 11.6454 11.5422 11.8439 11.5422ZM10.6419 8.76074H12.4938C12.9648 8.76074 13.3161 8.87058 13.5545 9.08908C13.793 9.30758 13.9116 9.63065 13.9116 10.0624V12.2445H11.4753C11.135 12.2445 10.8688 12.158 10.6871 11.9857C10.5054 11.8133 10.418 11.565 10.418 11.2425C10.418 10.8453 10.5198 10.5631 10.7299 10.3907C10.94 10.2184 11.286 10.129 11.782 10.129H12.9724V10.0449C12.9724 9.83747 12.9104 9.69433 12.7912 9.60729C12.672 9.52024 12.462 9.48051 12.1506 9.48051H10.6419V8.76074Z" fill="black"/>
<path d="M14.6505 11.5192H16.5602C16.7303 11.5192 16.8553 11.4906 16.9288 11.4386C16.9697 11.4103 17.0023 11.3715 17.0235 11.3262C17.0446 11.281 17.0535 11.2308 17.0492 11.181C17.0538 11.131 17.0451 11.0806 17.0242 11.0351C17.0033 10.9895 16.9708 10.9504 16.93 10.9216C16.8507 10.8632 16.7263 10.8351 16.5613 10.8351H15.7789C15.316 10.8351 15.0023 10.7603 14.8374 10.6166C14.6725 10.4729 14.5938 10.2135 14.5938 9.8507C14.5938 9.47679 14.6904 9.19987 14.8889 9.02168C15.0874 8.84349 15.3941 8.75586 15.7992 8.75586H17.7442V9.48088H16.1464C15.8852 9.48088 15.7151 9.50406 15.636 9.55041C15.5567 9.59598 15.5168 9.6766 15.5168 9.79753C15.513 9.84204 15.5205 9.88678 15.5384 9.92762C15.5563 9.96846 15.5841 10.0041 15.6192 10.0312C15.6869 10.0826 15.8003 10.106 15.9479 10.106H16.7714C17.1458 10.106 17.4346 10.1977 17.6279 10.3765C17.8212 10.5553 17.9225 10.8082 17.9225 11.1424C17.9225 11.4649 17.8316 11.7266 17.6563 11.9311C17.5734 12.0297 17.4698 12.1083 17.3529 12.1611C17.236 12.2139 17.1089 12.2395 16.9809 12.2361H14.6505V11.5192Z" fill="black"/>
<path d="M18.5188 11.5192H20.4285C20.5987 11.5192 20.7237 11.4906 20.7972 11.4386C20.8378 11.4101 20.8702 11.3713 20.8912 11.326C20.9121 11.2808 20.9208 11.2307 20.9164 11.181C20.921 11.131 20.9123 11.0806 20.8914 11.0351C20.8705 10.9895 20.8379 10.9504 20.7972 10.9216C20.7179 10.8632 20.5935 10.8351 20.4285 10.8351H19.6461C19.1832 10.8351 18.8695 10.7603 18.7046 10.6166C18.5396 10.4729 18.4609 10.2123 18.4609 9.84953C18.4609 9.47563 18.5576 9.1987 18.7561 9.02051C18.9546 8.84232 19.2607 8.75586 19.6687 8.75586H21.6143V9.48088H20.0148C19.754 9.48088 19.5838 9.50406 19.5043 9.55041C19.4251 9.59598 19.3851 9.6766 19.3851 9.79753C19.3814 9.84204 19.3888 9.88678 19.4067 9.92762C19.4246 9.96846 19.4524 10.0041 19.4876 10.0312C19.5553 10.0826 19.6687 10.106 19.8163 10.106H20.6386C21.013 10.106 21.3024 10.1977 21.4951 10.3765C21.6878 10.5553 21.7896 10.8082 21.7896 11.1424C21.7896 11.4649 21.6994 11.7266 21.5234 11.9311C21.4407 12.0296 21.3371 12.1082 21.2204 12.161C21.1036 12.2137 20.9766 12.2394 20.8487 12.2361H18.5067V11.5192H18.5188Z" fill="black"/>
<path d="M23.3487 7.5V8.76076H24.1259C24.4732 8.76076 24.744 8.80107 24.9535 8.88754C25.1653 8.97123 25.3499 9.11284 25.4865 9.29649C25.61 9.45486 25.7043 9.63434 25.7648 9.82639C25.8279 10.0313 25.8584 10.2451 25.8551 10.4597C25.8551 11.0182 25.7077 11.4558 25.413 11.7724C25.1184 12.0891 24.7099 12.2445 24.1827 12.2445H22.4355V7.5H23.3487ZM23.9002 9.51558H23.3441V11.5019H23.968C24.3152 11.5019 24.5577 11.4272 24.6942 11.2829C24.8308 11.1386 24.9037 10.8856 24.9037 10.5286C24.9037 10.1717 24.8244 9.90701 24.6722 9.75161C24.52 9.5962 24.2619 9.51558 23.9002 9.51558Z" fill="black"/>
<path d="M27.1382 10.5055C27.1382 10.8391 27.2117 11.0897 27.365 11.2825C27.5184 11.4753 27.7279 11.5588 28.0056 11.5588C28.2834 11.5588 28.4877 11.4671 28.6468 11.2825C28.806 11.0979 28.8783 10.8391 28.8783 10.5055C28.8783 10.1719 28.7985 9.91773 28.6468 9.7337C28.4952 9.54967 28.284 9.45736 28.0056 9.45736C27.8851 9.45179 27.765 9.47374 27.654 9.52159C27.5431 9.56944 27.4443 9.64194 27.365 9.7337C27.2117 9.91773 27.1382 10.1771 27.1382 10.5055ZM29.8262 10.5055C29.8262 11.0507 29.6619 11.4883 29.3332 11.8182C29.0039 12.1407 28.567 12.3078 28.0114 12.3078C27.4559 12.3078 27.0132 12.1466 26.6845 11.8182C26.3558 11.4899 26.1914 11.0587 26.1914 10.5113C26.1914 9.96388 26.3558 9.5263 26.6845 9.19796C27.0132 8.86963 27.4559 8.70312 28.0103 8.70312C28.5647 8.70312 29.0027 8.87021 29.332 9.19796C29.6613 9.52571 29.8262 9.95804 29.8262 10.5055Z" fill="black"/>
<path d="M31.3121 12.2445H30.3711V7.5H31.3121V12.2445Z" fill="black"/>
<path d="M31.748 8.76076H32.3886V7.5H33.296V8.76076H34.2543V9.45774H33.296V10.8628C33.296 11.1216 33.3417 11.3004 33.4262 11.4038C33.5107 11.5072 33.6646 11.5534 33.8799 11.5534H34.2543V12.2503H33.421C33.0865 12.2503 32.8307 12.158 32.6496 11.9682C32.4685 11.7783 32.3834 11.5078 32.3834 11.1561V9.45774H31.7422V8.76076H31.748Z" fill="black"/>
<path d="M40.05 9.84943L38.0211 7.92032C37.9343 7.83968 37.8207 7.79492 37.7028 7.79492C37.5848 7.79492 37.4712 7.83968 37.3845 7.92032L36.1113 9.13609C36.2781 9.19861 36.4279 9.29998 36.5486 9.43195C36.6692 9.56392 36.7574 9.72277 36.8058 9.89558H38.5245C38.5455 9.89558 38.5662 9.89976 38.5856 9.90787C38.6049 9.91598 38.6225 9.92787 38.6373 9.94285C38.652 9.95783 38.6638 9.97561 38.6717 9.99517C38.6797 10.0147 38.6837 10.0357 38.6837 10.0568V10.3215C38.6837 10.3426 38.6797 10.3636 38.6717 10.3831C38.6638 10.4027 38.652 10.4205 38.6373 10.4355C38.6225 10.4504 38.6049 10.4623 38.5856 10.4704C38.5662 10.4786 38.5455 10.4827 38.5245 10.4827H38.326V10.8572C38.3262 10.8783 38.3222 10.8993 38.3143 10.9188C38.3064 10.9384 38.2947 10.9562 38.28 10.9712C38.2653 10.9862 38.2477 10.9981 38.2284 11.0062C38.2091 11.0143 38.1884 11.0185 38.1675 11.0185H37.7317C37.7108 11.0185 37.6901 11.0143 37.6707 11.0062C37.6514 10.9981 37.6339 10.9862 37.6192 10.9712C37.6044 10.9562 37.5928 10.9384 37.5849 10.9188C37.577 10.8993 37.573 10.8783 37.5731 10.8572V10.4827H36.8058C36.7597 10.6574 36.6725 10.8183 36.5516 10.9517C36.4307 11.0851 36.2797 11.1869 36.1113 11.2487L37.3903 12.4662C37.477 12.5468 37.5906 12.5916 37.7085 12.5916C37.8265 12.5916 37.9401 12.5468 38.0268 12.4662L40.0523 10.5382C40.0984 10.4937 40.135 10.4401 40.1599 10.3808C40.1848 10.3215 40.1976 10.2577 40.1974 10.1933C40.1972 10.1289 40.184 10.0652 40.1586 10.0061C40.1333 9.94699 40.0963 9.89369 40.05 9.84943Z" fill="#D40101"/>
<path d="M35.7348 9.66211C35.6521 9.66377 35.5707 9.68371 35.4964 9.72053C35.4133 9.76215 35.3427 9.82541 35.292 9.90377C35.2412 9.98214 35.2121 10.0728 35.2076 10.1663C35.2032 10.2598 35.2235 10.3528 35.2666 10.4358C35.3097 10.5187 35.3739 10.5885 35.4527 10.638C35.5314 10.6874 35.6218 10.7148 35.7145 10.7172C35.8073 10.7196 35.8989 10.6969 35.9801 10.6516C36.0612 10.6062 36.1289 10.5398 36.1761 10.4593C36.2234 10.3787 36.2484 10.2868 36.2487 10.1932C36.2503 10.124 36.2382 10.0552 36.2131 9.99087C36.188 9.9265 36.1504 9.86785 36.1025 9.81837C36.0547 9.76889 35.9975 9.72958 35.9343 9.70274C35.8712 9.6759 35.8033 9.66209 35.7348 9.66211Z" fill="#D40101"/>
<path d="M6.59766 24.5C6.59766 23.3954 7.49309 22.5 8.59766 22.5H31.2197C32.3243 22.5 33.2197 23.3954 33.2197 24.5V28.5C33.2197 29.6046 32.3243 30.5 31.2197 30.5H8.59766C7.49309 30.5 6.59766 29.6046 6.59766 28.5V24.5Z" fill="#327FA8"/>
<path d="M12.5977 26.5H27.2197" stroke="#FEFBF3" stroke-width="2" stroke-linecap="round"/>
<path d="M6.59766 38.5C6.59766 37.3954 7.49309 36.5 8.59766 36.5H46.5977C47.7022 36.5 48.5977 37.3954 48.5977 38.5V42.5C48.5977 43.6046 47.7022 44.5 46.5977 44.5H8.59766C7.49309 44.5 6.59766 43.6046 6.59766 42.5V38.5Z" fill="#E8DFC9"/>
<path opacity="0.25" d="M12.5977 40.5H33.3909" stroke="#153444" stroke-width="2" stroke-linecap="round"/>
<path opacity="0.25" d="M12.5977 50.5H32.5977" stroke="#153444" stroke-width="2" stroke-linecap="round"/>
<path opacity="0.25" d="M12.5977 56.5H32.5977" stroke="#153444" stroke-linecap="round"/>
<path opacity="0.25" d="M12.5977 62.5H32.5977" stroke="#153444" stroke-linecap="round"/>
<path opacity="0.25" d="M12.5977 68.5H32.5977" stroke="#153444" stroke-linecap="round"/>
<path opacity="0.25" d="M12.5977 74.5H32.5977" stroke="#153444" stroke-linecap="round"/>
<path opacity="0.25" d="M12.5977 84.5H42.5977" stroke="#153444" stroke-width="2" stroke-linecap="round"/>
<path opacity="0.25" d="M12.5977 90.5H42.5977" stroke="#153444" stroke-linecap="round"/>
<path opacity="0.25" d="M12.5977 96.5H42.5977" stroke="#153444" stroke-linecap="round"/>
<path opacity="0.25" d="M12.5977 102.5H42.5977" stroke="#153444" stroke-linecap="round"/>
<path opacity="0.25" d="M12.5977 108.5H42.5977" stroke="#153444" stroke-linecap="round"/>
<path opacity="0.25" d="M12.5977 118.5H24.5977" stroke="#153444" stroke-width="2" stroke-linecap="round"/>
<path opacity="0.25" d="M12.5977 124.5H24.5977" stroke="#153444" stroke-linecap="round"/>
<path opacity="0.25" d="M12.5977 130.5H24.5977" stroke="#153444" stroke-linecap="round"/>
<path opacity="0.25" d="M12.5977 136.5H24.5977" stroke="#153444" stroke-linecap="round"/>
<path opacity="0.25" d="M12.5977 142.5H24.5977" stroke="#153444" stroke-linecap="round"/>
<path d="M54.5977 8C54.5977 6.89543 55.4931 6 56.5977 6H184.598C185.702 6 186.598 6.89543 186.598 8V12C186.598 13.1046 185.702 14 184.598 14H56.5977C55.4931 14 54.5977 13.1046 54.5977 12V8Z" fill="#FEFBF3"/>
<path opacity="0.25" d="M60.5977 10H81.3909" stroke="#153444" stroke-width="2" stroke-linecap="round"/>
<g clip-path="url(#clip0_4949_454622)">
<path d="M54.5977 24C54.5977 22.8954 55.4931 22 56.5977 22H184.598C185.702 22 186.598 22.8954 186.598 24V166H54.5977V24Z" fill="#FEFBF3"/>
<rect x="54.5977" y="76.459" width="132" height="11.0821" fill="#E8DFC9"/>
<path opacity="0.25" d="M60.5977 28H73.931" stroke="#153444" stroke-width="2" stroke-linecap="round"/>
<path opacity="0.25" d="M81.9316 28H95.265" stroke="#153444" stroke-width="2" stroke-linecap="round"/>
<path opacity="0.25" d="M103.264 28H116.597" stroke="#153444" stroke-width="2" stroke-linecap="round"/>
<path d="M60.5977 38C60.5977 36.8954 61.4931 36 62.5977 36H76.5977C77.7022 36 78.5977 36.8954 78.5977 38V42C78.5977 43.1046 77.7022 44 76.5977 44H62.5977C61.4931 44 60.5977 43.1046 60.5977 42V38Z" fill="#F6F1E5"/>
<path opacity="0.25" d="M66.5977 40H72.5977" stroke="#153444" stroke-width="2" stroke-linecap="round"/>
<path d="M82.5977 38C82.5977 36.8954 83.4931 36 84.5977 36H98.5977C99.7022 36 100.598 36.8954 100.598 38V42C100.598 43.1046 99.7022 44 98.5977 44H84.5977C83.4931 44 82.5977 43.1046 82.5977 42V38Z" fill="#F6F1E5"/>
<path opacity="0.25" d="M88.5977 40H94.5977" stroke="#153444" stroke-width="2" stroke-linecap="round"/>
<path d="M140.598 38C140.598 36.8954 141.493 36 142.598 36H162.498C163.602 36 164.498 36.8954 164.498 38V42C164.498 43.1046 163.602 44 162.498 44H142.598C141.493 44 140.598 43.1046 140.598 42V38Z" fill="#F6F1E5"/>
<path opacity="0.25" d="M146.598 40L158.498 40" stroke="#153444" stroke-width="2" stroke-linecap="round"/>
<path d="M168.498 38C168.498 36.8954 169.393 36 170.498 36H178.598C179.703 36 180.598 36.8954 180.598 38V42C180.598 43.1046 179.703 44 178.598 44H170.498C169.393 44 168.498 43.1046 168.498 42V38Z" fill="#E8DFC9"/>
<path opacity="0.25" d="M174.498 40H174.598" stroke="#153444" stroke-width="2" stroke-linecap="round"/>
<path opacity="0.25" d="M60.5977 52H95.5977" stroke="#153444" stroke-width="2" stroke-linecap="round"/>
<path opacity="0.25" d="M60.5977 62H95.5977" stroke="#153444" stroke-linecap="round"/>
<path opacity="0.25" d="M60.5977 72H95.5977" stroke="#153444" stroke-linecap="round"/>
<path opacity="0.25" d="M60.5977 82H95.5977" stroke="#153444" stroke-linecap="round"/>
<path opacity="0.25" d="M60.5977 92H95.5977" stroke="#153444" stroke-linecap="round"/>
<path opacity="0.25" d="M60.5977 102H95.5977" stroke="#153444" stroke-linecap="round"/>
<path opacity="0.25" d="M60.5977 112H95.5977" stroke="#153444" stroke-linecap="round"/>
<path opacity="0.25" d="M60.5977 122H95.5977" stroke="#153444" stroke-linecap="round"/>
<path opacity="0.25" d="M60.5977 132H95.5977" stroke="#153444" stroke-linecap="round"/>
<path opacity="0.25" d="M60.5977 142H95.5977" stroke="#153444" stroke-linecap="round"/>
<path opacity="0.25" d="M60.5977 152H95.5977" stroke="#153444" stroke-linecap="round"/>
<path opacity="0.25" d="M60.5977 162H95.5977" stroke="#153444" stroke-linecap="round"/>
<path opacity="0.25" d="M105.598 52H117.598" stroke="#153444" stroke-width="2" stroke-linecap="round"/>
<path opacity="0.25" d="M105.598 62H117.598" stroke="#153444" stroke-linecap="round"/>
<path opacity="0.25" d="M105.598 72H117.598" stroke="#153444" stroke-linecap="round"/>
<path opacity="0.25" d="M105.598 82H117.598" stroke="#153444" stroke-linecap="round"/>
<path opacity="0.25" d="M105.598 92H117.598" stroke="#153444" stroke-linecap="round"/>
<path opacity="0.25" d="M105.598 102H117.598" stroke="#153444" stroke-linecap="round"/>
<path opacity="0.25" d="M105.598 112H117.598" stroke="#153444" stroke-linecap="round"/>
<path opacity="0.25" d="M105.598 122H117.598" stroke="#153444" stroke-linecap="round"/>
<path opacity="0.25" d="M105.598 132H117.598" stroke="#153444" stroke-linecap="round"/>
<path opacity="0.25" d="M105.598 142H117.598" stroke="#153444" stroke-linecap="round"/>
<path opacity="0.25" d="M105.598 152H117.598" stroke="#153444" stroke-linecap="round"/>
<path opacity="0.25" d="M105.598 162H117.598" stroke="#153444" stroke-linecap="round"/>
<path opacity="0.25" d="M127.598 52H147.598" stroke="#153444" stroke-width="2" stroke-linecap="round"/>
<path opacity="0.25" d="M127.598 62H147.598" stroke="#153444" stroke-linecap="round"/>
<path opacity="0.25" d="M127.598 72H147.598" stroke="#153444" stroke-linecap="round"/>
<path opacity="0.25" d="M127.598 82H147.598" stroke="#153444" stroke-linecap="round"/>
<path opacity="0.25" d="M127.598 92H147.598" stroke="#153444" stroke-linecap="round"/>
<path opacity="0.25" d="M127.598 102H147.598" stroke="#153444" stroke-linecap="round"/>
<path opacity="0.25" d="M127.598 112H147.598" stroke="#153444" stroke-linecap="round"/>
<path opacity="0.25" d="M127.598 122H147.598" stroke="#153444" stroke-linecap="round"/>
<path opacity="0.25" d="M127.598 132H147.598" stroke="#153444" stroke-linecap="round"/>
<path opacity="0.25" d="M127.598 142H147.598" stroke="#153444" stroke-linecap="round"/>
<path opacity="0.25" d="M127.598 152H147.598" stroke="#153444" stroke-linecap="round"/>
<path opacity="0.25" d="M127.598 162H147.598" stroke="#153444" stroke-linecap="round"/>
<path opacity="0.25" d="M157.598 52H164.098" stroke="#153444" stroke-width="2" stroke-linecap="round"/>
<path opacity="0.25" d="M157.598 62H164.098" stroke="#153444" stroke-linecap="round"/>
<path opacity="0.25" d="M157.598 72H164.098" stroke="#153444" stroke-linecap="round"/>
<path opacity="0.25" d="M157.598 82H164.098" stroke="#153444" stroke-linecap="round"/>
<path opacity="0.25" d="M157.598 92H164.098" stroke="#153444" stroke-linecap="round"/>
<path opacity="0.25" d="M157.598 102H164.098" stroke="#153444" stroke-linecap="round"/>
<path opacity="0.25" d="M157.598 112H164.098" stroke="#153444" stroke-linecap="round"/>
<path opacity="0.25" d="M157.598 122H164.098" stroke="#153444" stroke-linecap="round"/>
<path opacity="0.25" d="M157.598 132H164.098" stroke="#153444" stroke-linecap="round"/>
<path opacity="0.25" d="M157.598 142H164.098" stroke="#153444" stroke-linecap="round"/>
<path opacity="0.25" d="M157.598 152H164.098" stroke="#153444" stroke-linecap="round"/>
<path opacity="0.25" d="M157.598 162H164.098" stroke="#153444" stroke-linecap="round"/>
<path opacity="0.25" d="M174.098 52H180.598" stroke="#153444" stroke-width="2" stroke-linecap="round"/>
<path opacity="0.25" d="M174.098 62H180.598" stroke="#153444" stroke-linecap="round"/>
<path opacity="0.25" d="M174.098 72H180.598" stroke="#153444" stroke-linecap="round"/>
<path opacity="0.25" d="M174.098 82H180.598" stroke="#153444" stroke-linecap="round"/>
<path opacity="0.25" d="M174.098 92H180.598" stroke="#153444" stroke-linecap="round"/>
<path opacity="0.25" d="M174.098 102H180.598" stroke="#153444" stroke-linecap="round"/>
<path opacity="0.25" d="M174.098 112H180.598" stroke="#153444" stroke-linecap="round"/>
<path opacity="0.25" d="M174.098 122H180.598" stroke="#153444" stroke-linecap="round"/>
<path opacity="0.25" d="M174.098 132H180.598" stroke="#153444" stroke-linecap="round"/>
<path opacity="0.25" d="M174.098 142H180.598" stroke="#153444" stroke-linecap="round"/>
<path opacity="0.25" d="M174.098 152H180.598" stroke="#153444" stroke-linecap="round"/>
<path opacity="0.25" d="M174.098 162H180.598" stroke="#153444" stroke-linecap="round"/>
</g>
<circle opacity="0.25" cx="222.598" cy="11" r="2" fill="#153444"/>
<circle cx="239.598" cy="11" r="5" fill="#707C74"/>
<path d="M241.071 12.3195H238.134C237.897 12.3159 237.662 12.3604 237.442 12.4504C237.223 12.5403 237.024 12.6739 236.858 12.8429C236.688 13.0092 236.554 13.208 236.464 13.4274C236.373 13.6467 236.328 13.8822 236.33 14.1195V14.3919C237.204 15.2359 238.371 15.7074 239.586 15.7068C240.8 15.7074 241.967 15.2359 242.841 14.3919V14.1195C242.844 13.8825 242.8 13.6471 242.71 13.4277C242.62 13.2083 242.486 13.0094 242.317 12.8429C242.154 12.6777 241.96 12.5464 241.746 12.4565C241.532 12.3667 241.303 12.3201 241.071 12.3195Z" fill="#FEFBF3"/>
<circle cx="239.599" cy="9.69068" r="1.78571" fill="#FEFBF3"/>
<path d="M192.598 24C192.598 22.8954 193.493 22 194.598 22H242.598C243.702 22 244.598 22.8954 244.598 24V166H192.598V24Z" fill="#FEFBF3"/>
<circle cx="203.598" cy="31" r="5" fill="#327FA8"/>
<path opacity="0.25" d="M215.598 29H238.598" stroke="#153444" stroke-width="2" stroke-linecap="round"/>
<path opacity="0.25" d="M215.598 33H226.758" stroke="#153444" stroke-linecap="round"/>
<path opacity="0.25" d="M206.598 46H214.598" stroke="#153444" stroke-width="2" stroke-linecap="round"/>
<path opacity="0.25" d="M222.598 46H230.598" stroke="#153444" stroke-linecap="round"/>
<path opacity="0.25" d="M198.598 56H233.695" stroke="#153444" stroke-width="2" stroke-linecap="round"/>
<path opacity="0.25" d="M198.598 62H219.391" stroke="#153444" stroke-linecap="round"/>
<path opacity="0.25" d="M198.598 68H219.391" stroke="#153444" stroke-linecap="round"/>
<path opacity="0.25" d="M198.598 74H219.391" stroke="#153444" stroke-linecap="round"/>
<path opacity="0.25" d="M198.598 80H219.391" stroke="#153444" stroke-linecap="round"/>
<path opacity="0.25" d="M198.598 90H233.695" stroke="#153444" stroke-width="2" stroke-linecap="round"/>
<path opacity="0.25" d="M198.598 96H219.391" stroke="#153444" stroke-linecap="round"/>
<path opacity="0.25" d="M198.598 102H219.391" stroke="#153444" stroke-linecap="round"/>
<path opacity="0.25" d="M198.598 108H219.391" stroke="#153444" stroke-linecap="round"/>
<path opacity="0.25" d="M198.598 114H219.391" stroke="#153444" stroke-linecap="round"/>
<path opacity="0.25" d="M198.598 124H233.695" stroke="#153444" stroke-width="2" stroke-linecap="round"/>
<path opacity="0.25" d="M198.598 130H219.391" stroke="#153444" stroke-linecap="round"/>
<path opacity="0.25" d="M198.598 136H219.391" stroke="#153444" stroke-linecap="round"/>
<path opacity="0.25" d="M198.598 142H219.391" stroke="#153444" stroke-linecap="round"/>
<path opacity="0.25" d="M198.598 148H219.391" stroke="#153444" stroke-linecap="round"/>
<defs>
<clipPath id="clip0_4949_454622">
<path d="M54.5977 24C54.5977 22.8954 55.4931 22 56.5977 22H184.598C185.702 22 186.598 22.8954 186.598 24V166H54.5977V24Z" fill="white"/>
</clipPath>
</defs>
</svg>
