<svg xmlns="http://www.w3.org/2000/svg" width="18" height="18" viewBox="0 0 18 18" fill="none">
    <g clip-path="url(#clip0_125_193764)">
        <path d="M4.5 6C4.5 4.80653 4.97411 3.66193 5.81802 2.81802C6.66193 1.97411 7.80653 1.5 9 1.5C10.1935 1.5 11.3381 1.97411 12.182 2.81802C13.0259 3.66193 13.5 4.80653 13.5 6C13.5 11.25 15.75 12.75 15.75 12.75H2.25C2.25 12.75 4.5 11.25 4.5 6Z" stroke="var(--icon-color)" stroke-width="1.5" stroke-linecap="round" stroke-linejoin="round"/>
        <path d="M7.72501 15.75C7.85054 15.9783 8.03509 16.1688 8.25937 16.3014C8.48366 16.434 8.73944 16.504 9.00001 16.504C9.26057 16.504 9.51636 16.434 9.74064 16.3014C9.96492 16.1688 10.1495 15.9783 10.275 15.75" stroke="var(--icon-color)" stroke-width="1.5" stroke-linecap="round" stroke-linejoin="round"/>
        <path d="M3 1.5C2.1 2.775 1.5 4.275 1.5 6" stroke="var(--icon-color)" stroke-width="1.5" stroke-linecap="round" stroke-linejoin="round"/>
        <path d="M16.5 6C16.5 4.275 15.9 2.775 15 1.5" stroke="var(--icon-color)" stroke-width="1.5" stroke-linecap="round" stroke-linejoin="round"/>
    </g>
</svg>