<svg xmlns="http://www.w3.org/2000/svg" width="18" height="18" viewBox="0 0 18 18" fill="none">
    <g clip-path="url(#clip0_2063_453309)">
        <path d="M16.5 15V8.25H1.5V15C1.5 15.3978 1.65804 15.7794 1.93934 16.0607C2.22064 16.342 2.60218 16.5 3 16.5H15C15.3978 16.5 15.7794 16.342 16.0607 16.0607C16.342 15.7794 16.5 15.3978 16.5 15Z" stroke="var(--icon-color)" stroke-width="1.5" stroke-linecap="round" stroke-linejoin="round"/>
        <path d="M13.5 8.25V3H4.5V8.25" stroke="var(--icon-color)" stroke-width="1.5" stroke-linecap="round" stroke-linejoin="round"/>
        <path d="M11.25 16.5V13.5C11.25 12.9033 11.0129 12.331 10.591 11.909C10.169 11.4871 9.59674 11.25 9 11.25C8.40326 11.25 7.83097 11.4871 7.40901 11.909C6.98705 12.331 6.75 12.9033 6.75 13.5V16.5" stroke="var(--icon-color)" stroke-width="1.5" stroke-linecap="round" stroke-linejoin="round"/>
        <path d="M16.5 8.25V6.75" stroke="var(--icon-color)" stroke-width="1.5" stroke-linecap="round" stroke-linejoin="round"/>
        <path d="M1.5 8.25V6.75" stroke="var(--icon-color)" stroke-width="1.5" stroke-linecap="round" stroke-linejoin="round"/>
        <path d="M4.5 3V1.5" stroke="var(--icon-color)" stroke-width="1.5" stroke-linecap="round" stroke-linejoin="round"/>
        <path d="M13.5 3V1.5" stroke="var(--icon-color)" stroke-width="1.5" stroke-linecap="round" stroke-linejoin="round"/>
        <path d="M7.5 3V1.5" stroke="var(--icon-color)" stroke-width="1.5" stroke-linecap="round" stroke-linejoin="round"/>
        <path d="M10.5 3V1.5" stroke="var(--icon-color)" stroke-width="1.5" stroke-linecap="round" stroke-linejoin="round"/>
    </g>
</svg>