<svg xmlns="http://www.w3.org/2000/svg" width="64" height="64" viewBox="0 0 64 64" fill="none">
    <path d="M5.33331 5.33301L58.6666 58.6663" stroke="var(--icon-color)" stroke-width="2" stroke-linecap="round" stroke-linejoin="round"/>
    <path d="M22.2667 7.17306C27.095 5.28726 32.3683 4.84954 37.4414 5.91344C42.5146 6.97735 47.1677 9.49675 50.8316 13.1635C54.4955 16.8302 57.0113 21.4853 58.0713 26.5593C59.1313 31.6333 58.6895 36.9062 56.8 41.7331" stroke="var(--icon-color)" stroke-width="2" stroke-linecap="round" stroke-linejoin="round"/>
    <path d="M50.88 50.8801C48.4006 53.3595 45.4572 55.3262 42.2178 56.668C38.9783 58.0098 35.5063 58.7005 32 58.7005C28.4936 58.7005 25.0216 58.0098 21.7822 56.668C18.5428 55.3262 15.5993 53.3595 13.12 50.8801C10.6406 48.4008 8.67388 45.4573 7.33207 42.2179C5.99025 38.9785 5.29962 35.5065 5.29962 32.0001C5.29962 28.4938 5.99025 25.0218 7.33207 21.7823C8.67388 18.5429 10.6406 15.5995 13.12 13.1201" stroke="var(--icon-color)" stroke-width="2" stroke-linecap="round" stroke-linejoin="round"/>
</svg>