<svg xmlns="http://www.w3.org/2000/svg" width="19" height="18" viewBox="0 0 19 18" fill="none">
    <g clip-path="url(#clip0_93_844425)">
        <path d="M9.82961 15.5098C11.5561 15.5098 13.2119 14.824 14.4327 13.6031C15.6536 12.3823 16.3394 10.7265 16.3394 9.00002C16.3394 7.27352 15.6536 5.61773 14.4327 4.39691C13.2119 3.17609 11.5561 2.49023 9.82961 2.49023C8.10311 2.49023 6.44732 3.17609 5.2265 4.39691C4.00568 5.61773 3.31982 7.27352 3.31982 9.00002C3.31982 10.7265 4.00568 12.3823 5.2265 13.6031C6.44732 14.824 8.10311 15.5098 9.82961 15.5098Z" stroke="var(--icon-color)" stroke-width="1.5" stroke-linecap="round" stroke-linejoin="round"/>
        <path d="M9.83042 10.627C10.262 10.627 10.676 10.4555 10.9812 10.1503C11.2864 9.84509 11.4579 9.43114 11.4579 8.99952C11.4579 8.56789 11.2864 8.15394 10.9812 7.84874C10.676 7.54353 10.262 7.37207 9.83042 7.37207C9.39879 7.37207 8.98485 7.54353 8.67964 7.84874C8.37444 8.15394 8.20297 8.56789 8.20297 8.99952C8.20297 9.43114 8.37444 9.84509 8.67964 10.1503C8.98485 10.4555 9.39879 10.627 9.83042 10.627Z" stroke="var(--icon-color)" stroke-width="1.5" stroke-linecap="round" stroke-linejoin="round"/>
        <path d="M9.83002 0.862305V2.48975" stroke="var(--icon-color)" stroke-width="1.5" stroke-linecap="round" stroke-linejoin="round"/>
        <path d="M9.83002 17.1372V15.5098" stroke="var(--icon-color)" stroke-width="1.5" stroke-linecap="round" stroke-linejoin="round"/>
        <path d="M13.8988 16.0464L13.0851 14.6387" stroke="var(--icon-color)" stroke-width="1.5" stroke-linecap="round" stroke-linejoin="round"/>
        <path d="M9.01579 7.59223L5.76089 1.95312" stroke="var(--icon-color)" stroke-width="1.5" stroke-linecap="round" stroke-linejoin="round"/>
        <path d="M16.8764 13.0686L15.4687 12.2549" stroke="var(--icon-color)" stroke-width="1.5" stroke-linecap="round" stroke-linejoin="round"/>
        <path d="M2.78345 4.93164L4.19119 5.74536" stroke="var(--icon-color)" stroke-width="1.5" stroke-linecap="round" stroke-linejoin="round"/>
        <path d="M11.4571 9H17.9669" stroke="var(--icon-color)" stroke-width="1.5" stroke-linecap="round" stroke-linejoin="round"/>
        <path d="M1.69278 9H3.32023" stroke="var(--icon-color)" stroke-width="1.5" stroke-linecap="round" stroke-linejoin="round"/>
        <path d="M16.8764 4.93164L15.4687 5.74536" stroke="var(--icon-color)" stroke-width="1.5" stroke-linecap="round" stroke-linejoin="round"/>
        <path d="M2.78345 13.0686L4.19119 12.2549" stroke="var(--icon-color)" stroke-width="1.5" stroke-linecap="round" stroke-linejoin="round"/>
        <path d="M13.8988 1.95312L13.0851 3.36087" stroke="var(--icon-color)" stroke-width="1.5" stroke-linecap="round" stroke-linejoin="round"/>
        <path d="M9.01579 10.4072L5.76089 16.0463" stroke="var(--icon-color)" stroke-width="1.5" stroke-linecap="round" stroke-linejoin="round"/>
    </g>
</svg>