<svg xmlns="http://www.w3.org/2000/svg" width="18" height="18" viewBox="0 0 18 18" fill="none">
    <path d="M5.925 15C7.35643 15.7343 9.00306 15.9332 10.5682 15.5609C12.1333 15.1885 13.5139 14.2694 14.4613 12.9692C15.4087 11.6689 15.8606 10.0731 15.7354 8.46916C15.6103 6.86524 14.9164 5.35876 13.7789 4.22118C12.6413 3.0836 11.1348 2.38972 9.53088 2.2646C7.92697 2.13947 6.3311 2.59132 5.03086 3.53872C3.73063 4.48612 2.81152 5.86677 2.43917 7.43187C2.06682 8.99697 2.26571 10.6436 3 12.075L1.5 16.5L5.925 15Z" stroke="var(--icon-color)" stroke-width="1.5" stroke-linecap="round" stroke-linejoin="round"/>
    <path d="M6 9H6.00833" stroke="var(--icon-color)" stroke-width="1.5" stroke-linecap="round" stroke-linejoin="round"/>
    <path d="M9 9H9.00833" stroke="var(--icon-color)" stroke-width="1.5" stroke-linecap="round" stroke-linejoin="round"/>
    <path d="M12 9H12.0083" stroke="var(--icon-color)" stroke-width="1.5" stroke-linecap="round" stroke-linejoin="round"/>
</svg>