<svg xmlns="http://www.w3.org/2000/svg" width="18" height="18" viewBox="0 0 18 18" fill="none">
    <g clip-path="url(#clip0_28_142057)">
        <path d="M11.25 3.75L14.25 6.75" stroke="var(--icon-color)" stroke-width="1.5" stroke-linecap="round" stroke-linejoin="round"/>
        <path d="M9.74997 5.25034L6.52497 2.02534C6.18626 1.68826 5.72784 1.49902 5.24997 1.49902C4.77211 1.49902 4.31369 1.68826 3.97497 2.02534L2.02497 3.97534C1.68789 4.31406 1.49866 4.77248 1.49866 5.25034C1.49866 5.7282 1.68789 6.18662 2.02497 6.52534L5.24997 9.75034" stroke="var(--icon-color)" stroke-width="1.5" stroke-linecap="round" stroke-linejoin="round"/>
        <path d="M6 4.5L7.5 3" stroke="var(--icon-color)" stroke-width="1.5" stroke-linecap="round" stroke-linejoin="round"/>
        <path d="M1.5 16.4998L5.625 15.3748L15.8775 5.1223C16.2753 4.72447 16.4988 4.18491 16.4988 3.6223C16.4988 3.05969 16.2753 2.52012 15.8775 2.1223C15.4797 1.72447 14.9401 1.50098 14.3775 1.50098C13.8149 1.50098 13.2753 1.72447 12.8775 2.1223L2.625 12.3748L1.5 16.4998Z" stroke="var(--icon-color)" stroke-width="1.5" stroke-linecap="round" stroke-linejoin="round"/>
        <path d="M13.5 12L15 10.5" stroke="var(--icon-color)" stroke-width="1.5" stroke-linecap="round" stroke-linejoin="round"/>
        <path d="M12.75 8.25L15.975 11.475C16.68 12.18 16.68 13.32 15.975 14.025L14.025 15.975C13.32 16.68 12.18 16.68 11.475 15.975L8.25 12.75" stroke="var(--icon-color)" stroke-width="1.5" stroke-linecap="round" stroke-linejoin="round"/>
    </g>
</svg>