<svg xmlns="http://www.w3.org/2000/svg" width="18" height="18" viewBox="0 0 18 18" fill="none">
    <g clip-path="url(#clip0_2066_453700)">
        <path d="M1.5 9C1.5 6.83273 2.43165 4.87249 3.91423 3.5M15 4.5C14.3014 3.56853 13.3955 2.8125 12.3541 2.2918C11.3127 1.77109 10.1643 1.5 9 1.5C8.20156 1.5 7.43121 1.62645 6.708 1.86031" stroke="var(--icon-color)" stroke-width="1.5" stroke-linecap="round" stroke-linejoin="round"/>
        <path d="M3.75 14.625C4.125 13.5 4.5 11.25 4.5 9C4.5 8.475 4.59 7.9725 4.755 7.5" stroke="var(--icon-color)" stroke-width="1.5" stroke-linecap="round" stroke-linejoin="round"/>
        <path d="M12.9675 15.765C13.0575 15.315 13.29 14.04 13.3425 13.5" stroke="var(--icon-color)" stroke-width="1.5" stroke-linecap="round" stroke-linejoin="round"/>
        <path d="M7.93933 7.93945C7.65803 8.22076 7.49999 8.60229 7.49999 9.00011C7.49999 9.76511 7.42499 10.8826 7.30499 12.0001" stroke="var(--icon-color)" stroke-width="1.5" stroke-linecap="round" stroke-linejoin="round"/>
        <path d="M6.48749 16.5C6.64499 16.005 6.82499 15.51 6.91499 15" stroke="var(--icon-color)" stroke-width="1.5" stroke-linecap="round" stroke-linejoin="round"/>
        <path d="M10.5 9.83984C10.5 11.6248 10.5 14.6248 9.75 16.4998" stroke="var(--icon-color)" stroke-width="1.5" stroke-linecap="round" stroke-linejoin="round"/>
        <path d="M1.5 12H1.5075" stroke="var(--icon-color)" stroke-width="1.5" stroke-linecap="round" stroke-linejoin="round"/>
        <path d="M16.35 12C16.5 10.5 16.4482 7.9845 16.35 7.5" stroke="var(--icon-color)" stroke-width="1.5" stroke-linecap="round" stroke-linejoin="round"/>
        <path d="M9.00073 4.49707C9.79089 4.4972 10.5671 4.70538 11.2513 5.10068C11.9354 5.49598 12.5035 6.06446 12.8982 6.74894C13.293 7.43343 13.5005 8.2098 13.5 8.99996" stroke="var(--icon-color)" stroke-width="1.5" stroke-linecap="round" stroke-linejoin="round"/>
        <path d="M2 1L17 16" stroke="var(--icon-color)" stroke-width="1.5" stroke-linecap="round"/>
    </g>
</svg>