<svg xmlns="http://www.w3.org/2000/svg" width="18" height="18" viewBox="0 0 18 18" fill="none">
    <path d="M9 7.5V12" stroke="var(--icon-color)" stroke-width="1.5" stroke-linecap="round" stroke-linejoin="round"/>
    <path d="M6.75 9.75H11.25" stroke="var(--icon-color)" stroke-width="1.5" stroke-linecap="round" stroke-linejoin="round"/>
    <path d="M15 15C15.3978 15 15.7794 14.842 16.0607 14.5607C16.342 14.2794 16.5 13.8978 16.5 13.5V6C16.5 5.60217 16.342 5.22064 16.0607 4.93934C15.7794 4.65804 15.3978 4.5 15 4.5H9.075C8.82413 4.50246 8.57666 4.44196 8.35523 4.32403C8.13379 4.20611 7.94547 4.03453 7.8075 3.825L7.2 2.925C7.06342 2.7176 6.87748 2.54736 6.65887 2.42955C6.44027 2.31174 6.19583 2.25004 5.9475 2.25H3C2.60218 2.25 2.22064 2.40804 1.93934 2.68934C1.65804 2.97064 1.5 3.35218 1.5 3.75V13.5C1.5 13.8978 1.65804 14.2794 1.93934 14.5607C2.22064 14.842 2.60218 15 3 15H15Z" stroke="var(--icon-color)" stroke-width="1.5" stroke-linecap="round" stroke-linejoin="round"/>
</svg>