<svg xmlns="http://www.w3.org/2000/svg" width="18" height="18" viewBox="0 0 18 18" fill="none">
    <g clip-path="url(#clip0_2267_647012)">
        <path d="M9 16.5C13.1421 16.5 16.5 13.1421 16.5 9C16.5 4.85786 13.1421 1.5 9 1.5C4.85786 1.5 1.5 4.85786 1.5 9C1.5 13.1421 4.85786 16.5 9 16.5Z" stroke="var(--icon-color)" stroke-width="1.5" stroke-linecap="round" stroke-linejoin="round"/>
        <path d="M6.8175 6.75043C6.99383 6.24918 7.34187 5.82651 7.79997 5.55728C8.25807 5.28805 8.79668 5.18963 9.32039 5.27946C9.8441 5.36929 10.3191 5.64157 10.6613 6.04807C11.0035 6.45458 11.1908 6.96907 11.19 7.50043C11.19 9.00043 8.94 9.75043 8.94 9.75043" stroke="var(--icon-color)" stroke-width="1.5" stroke-linecap="round" stroke-linejoin="round"/>
        <path d="M9 12.75H9.0075" stroke="var(--icon-color)" stroke-width="1.5" stroke-linecap="round" stroke-linejoin="round"/>
    </g>
</svg>