<svg width="49" height="48" viewBox="0 0 49 48" fill="none" xmlns="http://www.w3.org/2000/svg">
<path d="M38.5969 28C41.5769 25.08 44.5969 21.58 44.5969 17C44.5969 14.0826 43.438 11.2847 41.3751 9.22183C39.3122 7.15893 36.5143 6 33.5969 6C30.0769 6 27.5969 7 24.5969 10C21.5969 7 19.1169 6 15.5969 6C12.6795 6 9.88165 7.15893 7.81875 9.22183C5.75585 11.2847 4.59692 14.0826 4.59692 17C4.59692 21.6 7.59692 25.1 10.5969 28L24.5969 42L38.5969 28Z" stroke="var(--icon-color)" stroke-width="2" stroke-linecap="round" stroke-linejoin="round"/>
<path d="M7.03693 24H19.5969L20.5969 22L24.5969 31L28.5969 17L31.5969 24H42.1369" stroke="var(--icon-color)" stroke-width="2" stroke-linecap="round" stroke-linejoin="round"/>
</svg>
