<svg xmlns="http://www.w3.org/2000/svg" aria-labelledby="logo-title logo-description" width="151" height="27" viewBox="0 0 151 27" fill="none">
    <title id="logo-title">Passbolt logo</title>
    <desc id="logo-description">This is the logo of passbolt.</desc>
    <path d="M4.64794 9.23378V17.8414H7.1283C8.77413 17.8414 9.91355 17.492 10.5982 16.8287C11.2829 16.1654 11.611 15.0059 11.611 13.4338C11.611 11.9148 11.3062 10.8388 10.6732 10.2161C10.0401 9.54264 8.97824 9.2439 7.43318 9.2439L4.64794 9.23378ZM0.59668 5.96289H8.39432C10.7507 5.96289 12.5722 6.63884 13.8899 8.01099C15.2076 9.38314 15.8638 11.2793 15.8638 13.6996C15.8795 14.6314 15.7426 15.5597 15.4582 16.449C15.1892 17.2759 14.769 18.0479 14.218 18.7274C13.5928 19.5081 12.7734 20.1184 11.8384 20.4996C10.9005 20.849 9.68618 21.0237 8.14112 21.0237H4.64794V26.4996H0.59668V5.96289Z" fill="var(--icon-color)"/>
    <path d="M24.0157 18.0161H29.0798V14.8971H24.3206C23.3827 14.8971 22.7264 15.0211 22.3699 15.2717C22.0133 15.5224 21.8531 15.9705 21.8531 16.5933C21.8531 17.1173 22.003 17.492 22.282 17.7148C22.5611 17.9376 23.1295 18.0161 24.0157 18.0161ZM18.6493 5.96289H26.9172C29.0203 5.96289 30.5886 6.43884 31.6531 7.38568C32.7176 8.33251 33.2473 9.73251 33.2473 11.6034V21.0591H22.3699C20.8506 21.0591 19.6621 20.6844 18.8508 19.9376C18.0396 19.1907 17.6494 18.1148 17.6494 16.7173C17.6494 14.9958 18.1041 13.773 19.042 13.0262C19.9799 12.2793 21.525 11.892 23.7392 11.892H29.0539V11.5274C29.0539 10.6287 28.7775 10.0085 28.2452 9.63124C27.713 9.25403 26.7751 9.08188 25.3851 9.08188H18.6493V5.96289Z" fill="var(--icon-color)"/>
    <path d="M36.5491 17.9151H45.0754C45.835 17.9151 46.393 17.7911 46.7212 17.5657C46.9036 17.4429 47.0494 17.2748 47.1438 17.0787C47.2383 16.8825 47.2779 16.6653 47.2586 16.4493C47.279 16.2326 47.2405 16.0144 47.1471 15.817C47.0536 15.6196 46.9084 15.4499 46.7263 15.3252C46.3724 15.0721 45.8169 14.9506 45.0805 14.9506H41.5873C39.5204 14.9506 38.12 14.6265 37.3836 14.0037C36.6473 13.3809 36.2959 12.2569 36.2959 10.6847C36.2959 9.06448 36.7274 7.86448 37.6136 7.09233C38.4998 6.32018 39.8692 5.94043 41.6778 5.94043H50.3616V9.0822H43.228C42.0619 9.0822 41.3023 9.18262 40.9492 9.38347C40.5952 9.58094 40.4169 9.9303 40.4169 10.4544C40.4002 10.6472 40.4333 10.8411 40.5132 11.0181C40.5932 11.1951 40.7173 11.3495 40.8742 11.467C41.1765 11.6898 41.6829 11.7911 42.3418 11.7911H46.0184C47.6901 11.7911 48.9793 12.1885 49.8423 12.9632C50.7053 13.7379 51.1574 14.8341 51.1574 16.2822C51.1574 17.6797 50.7518 18.8138 49.9689 19.6999C49.5992 20.1272 49.1364 20.4677 48.6146 20.6964C48.0927 20.9251 47.5252 21.0362 46.9537 21.0214H36.5491V17.9151Z" fill="var(--icon-color)"/>
    <path d="M53.8218 17.9151H62.3481C63.1077 17.9151 63.6658 17.7911 63.9939 17.5657C64.1754 17.4423 64.3202 17.274 64.4137 17.0778C64.5072 16.8817 64.546 16.6649 64.5262 16.4493C64.5466 16.2326 64.5081 16.0144 64.4146 15.817C64.3211 15.6196 64.176 15.4499 63.9939 15.3252C63.6399 15.0721 63.0845 14.9506 62.3481 14.9506H58.8549C56.7879 14.9506 55.3876 14.6265 54.6512 14.0037C53.9149 13.3809 53.5635 12.2518 53.5635 10.6797C53.5635 9.05942 53.995 7.85942 54.8812 7.08727C55.7674 6.31511 57.1342 5.94043 58.9557 5.94043H67.6421V9.0822H60.5007C59.3363 9.0822 58.5767 9.18262 58.2219 9.38347C57.8679 9.58094 57.6897 9.9303 57.6897 10.4544C57.6729 10.6472 57.7061 10.8411 57.786 11.0181C57.8659 11.1951 57.9901 11.3495 58.147 11.467C58.4493 11.6898 58.9557 11.7911 59.6145 11.7911H63.286C64.9576 11.7911 66.2495 12.1885 67.1099 12.9632C67.9702 13.7379 68.425 14.8341 68.425 16.2822C68.425 17.6797 68.0219 18.8138 67.2365 19.6999C66.8671 20.1268 66.4047 20.4671 65.8833 20.6958C65.3619 20.9245 64.7949 21.0358 64.2239 21.0214H53.7676V17.9151H53.8218Z" fill="var(--icon-color)"/>
    <path d="M75.3867 0.5V5.96329H78.8566C80.4068 5.96329 81.616 6.13797 82.5513 6.51266C83.4971 6.87533 84.3211 7.48898 84.9309 8.28481C85.4823 8.97104 85.9032 9.74881 86.1737 10.581C86.4553 11.4691 86.5914 12.3954 86.5767 13.3253C86.5767 15.7456 85.9187 17.6418 84.6028 19.0139C83.2877 20.3861 81.4636 21.0595 79.1098 21.0595H71.3096V0.5H75.3867ZM77.8489 9.23418H75.366V17.8418H78.1512C79.7015 17.8418 80.784 17.5177 81.3938 16.8924C82.0036 16.2671 82.3291 15.1709 82.3291 13.6241C82.3291 12.0772 81.9751 10.9304 81.2956 10.257C80.6161 9.58354 79.4638 9.23418 77.8489 9.23418Z" fill="var(--icon-color)"/>
    <path d="M92.3002 13.525C92.3002 14.9705 92.6283 16.0566 93.313 16.8921C93.9977 17.7275 94.933 18.0895 96.1732 18.0895C97.4134 18.0895 98.3254 17.6921 99.0359 16.8921C99.7465 16.0921 100.069 14.9705 100.069 13.525C100.069 12.0794 99.7129 10.9781 99.0359 10.1807C98.359 9.3832 97.4159 8.9832 96.1732 8.9832C95.6352 8.95905 95.0986 9.05419 94.6034 9.26152C94.1081 9.46886 93.6671 9.78305 93.313 10.1807C92.6283 10.9781 92.3002 12.1022 92.3002 13.525ZM104.302 13.525C104.302 15.8878 103.568 17.784 102.1 19.2136C100.63 20.611 98.6794 21.3351 96.199 21.3351C93.7186 21.3351 91.7421 20.6364 90.2746 19.2136C88.807 17.7908 88.0732 15.9224 88.0732 13.5503C88.0732 11.1781 88.807 9.28193 90.2746 7.85915C91.7421 6.43636 93.7187 5.71484 96.1938 5.71484C98.669 5.71484 100.625 6.43889 102.095 7.85915C103.565 9.2794 104.302 11.1528 104.302 13.525Z" fill="var(--icon-color)"/>
    <path d="M110.935 21.0595H106.733V0.5H110.935V21.0595Z" fill="var(--icon-color)"/>
    <path d="M112.884 5.96329H115.744V0.5H119.796V5.96329H124.074V8.98354H119.796V15.0722C119.796 16.1937 120 16.9684 120.377 17.4165C120.754 17.8646 121.441 18.0646 122.403 18.0646H124.074V21.0848H120.354C118.86 21.0848 117.718 20.6848 116.91 19.862C116.101 19.0392 115.721 17.8671 115.721 16.343V8.98354H112.858V5.96329H112.884Z" fill="var(--icon-color)"/>
    <path d="M149.951 10.6802L140.892 2.32073C140.505 1.9713 139.998 1.77734 139.471 1.77734C138.945 1.77734 138.438 1.9713 138.05 2.32073L132.366 7.58908C133.111 7.86002 133.78 8.29926 134.318 8.87113C134.857 9.44299 135.251 10.1313 135.467 10.8802H143.14C143.234 10.8802 143.326 10.8983 143.413 10.9335C143.499 10.9686 143.578 11.0201 143.644 11.085C143.71 11.1499 143.762 11.227 143.797 11.3117C143.833 11.3965 143.851 11.4873 143.851 11.579V12.7258C143.851 12.8174 143.833 12.9082 143.797 12.993C143.762 13.0778 143.71 13.1548 143.644 13.2197C143.578 13.2846 143.499 13.3361 143.413 13.3713C143.326 13.4064 143.234 13.4245 143.14 13.4245H142.254V15.0473C142.255 15.1388 142.237 15.2296 142.202 15.3143C142.166 15.3991 142.114 15.4761 142.049 15.5411C141.983 15.606 141.904 15.6576 141.818 15.6928C141.732 15.7279 141.64 15.746 141.546 15.746H139.601C139.507 15.746 139.415 15.7279 139.328 15.6928C139.242 15.6576 139.164 15.606 139.098 15.5411C139.032 15.4761 138.98 15.3991 138.945 15.3143C138.91 15.2296 138.892 15.1388 138.893 15.0473V13.4245H135.467C135.261 14.1816 134.872 14.8788 134.332 15.4567C133.792 16.0346 133.118 16.4761 132.366 16.7435L138.076 22.0195C138.464 22.3689 138.971 22.5628 139.497 22.5628C140.024 22.5628 140.531 22.3689 140.918 22.0195L149.961 13.665C150.167 13.4719 150.33 13.2398 150.442 12.9829C150.553 12.726 150.61 12.4496 150.609 12.1705C150.608 11.8913 150.549 11.6153 150.436 11.3592C150.323 11.103 150.158 10.872 149.951 10.6802Z" fill="#D40101"/>
    <path d="M130.683 9.86719C130.314 9.87438 129.951 9.96079 129.619 10.1204C129.248 10.3007 128.933 10.5748 128.706 10.9144C128.48 11.254 128.35 11.6467 128.33 12.052C128.31 12.4573 128.401 12.8604 128.593 13.2197C128.786 13.579 129.072 13.8815 129.424 14.0959C129.775 14.3103 130.179 14.4288 130.593 14.4392C131.007 14.4495 131.416 14.3514 131.779 14.1549C132.141 13.9584 132.443 13.6707 132.654 13.3215C132.865 12.9723 132.977 12.5742 132.978 12.1685C132.985 11.8688 132.931 11.5707 132.819 11.2918C132.707 11.0129 132.539 10.7587 132.325 10.5443C132.112 10.3299 131.856 10.1595 131.574 10.0433C131.292 9.92697 130.989 9.8671 130.683 9.86719Z" fill="#D40101"/>
</svg>