<svg width="49" height="48" viewBox="0 0 49 48" fill="none" xmlns="http://www.w3.org/2000/svg">
<path d="M8.59692 44H36.5969C37.6578 44 38.6752 43.5786 39.4254 42.8284C40.1755 42.0783 40.5969 41.0609 40.5969 40V14L30.5969 4H12.5969C11.5361 4 10.5186 4.42143 9.7685 5.17157C9.01835 5.92172 8.59692 6.93913 8.59692 8V20" stroke="var(--icon-color)" stroke-width="2" stroke-linecap="round" stroke-linejoin="round"/>
<path d="M28.5969 4V12C28.5969 13.0609 29.0184 14.0783 29.7685 14.8284C30.5186 15.5786 31.5361 16 32.5969 16H40.5969" stroke="var(--icon-color)" stroke-width="2" stroke-linecap="round" stroke-linejoin="round"/>
<path d="M8.59692 36C10.8061 36 12.5969 34.2091 12.5969 32C12.5969 29.7909 10.8061 28 8.59692 28C6.38778 28 4.59692 29.7909 4.59692 32C4.59692 34.2091 6.38778 36 8.59692 36Z" stroke="var(--icon-color)" stroke-width="2" stroke-linecap="round" stroke-linejoin="round"/>
<path d="M20.5969 20L11.5969 29" stroke="var(--icon-color)" stroke-width="2" stroke-linecap="round" stroke-linejoin="round"/>
<path d="M18.5969 22L20.5969 24" stroke="var(--icon-color)" stroke-width="2" stroke-linecap="round" stroke-linejoin="round"/>
</svg>
