<svg width="48" height="48" viewBox="0 0 48 48" fill="none" xmlns="http://www.w3.org/2000/svg">
    <path d="M36 45C39.3137 45 42 42.3137 42 39C42 35.6863 39.3137 33 36 33C32.6863 33 30 35.6863 30 39C30 42.3137 32.6863 45 36 45Z" stroke="var(--icon-color)" stroke-width="2" stroke-linecap="round" stroke-linejoin="round"/>
    <path d="M43.4001 41.7992L41.6001 41.1992" stroke="var(--icon-color)" stroke-width="2" stroke-linecap="round" stroke-linejoin="round"/>
    <path d="M30.4001 36.7992L28.6001 36.1992" stroke="var(--icon-color)" stroke-width="2" stroke-linecap="round" stroke-linejoin="round"/>
    <path d="M33.2 46.3996L33.7999 44.5996" stroke="var(--icon-color)" stroke-width="2" stroke-linecap="round" stroke-linejoin="round"/>
    <path d="M38.2 33.3996L38.7999 31.5996" stroke="var(--icon-color)" stroke-width="2" stroke-linecap="round" stroke-linejoin="round"/>
    <path d="M39.1999 46.3994L38.3999 44.3994" stroke="var(--icon-color)" stroke-width="2" stroke-linecap="round" stroke-linejoin="round"/>
    <path d="M33.6 33.5996L32.8 31.5996" stroke="var(--icon-color)" stroke-width="2" stroke-linecap="round" stroke-linejoin="round"/>
    <path d="M28.6001 42.1994L30.6001 41.3994" stroke="var(--icon-color)" stroke-width="2" stroke-linecap="round" stroke-linejoin="round"/>
    <path d="M41.3999 36.5998L43.3999 35.7998" stroke="var(--icon-color)" stroke-width="2" stroke-linecap="round" stroke-linejoin="round"/>
    <path d="M4 24C4 13 13 4 24 4C27.1049 4 30.1672 4.7229 32.9443 6.11146C35.7214 7.50001 38.1371 9.51608 40 12" stroke="var(--icon-color)" stroke-width="2" stroke-linecap="round" stroke-linejoin="round"/>
    <path d="M10 39C11 36 12 30 12 24C12 22.6 12.24 21.26 12.68 20" stroke="var(--icon-color)" stroke-width="2" stroke-linecap="round" stroke-linejoin="round"/>
    <path d="M24 20C22.9391 20 21.9217 20.4214 21.1716 21.1716C20.4214 21.9217 20 22.9391 20 24C20 26.04 19.8 29.02 19.48 32" stroke="var(--icon-color)" stroke-width="2" stroke-linecap="round" stroke-linejoin="round"/>
    <path d="M17.3 44C17.72 42.68 18.2001 41.36 18.4401 40" stroke="var(--icon-color)" stroke-width="2" stroke-linecap="round" stroke-linejoin="round"/>
    <path d="M28 26.2402C28 27.1172 28 28.1041 27.9875 29.162" stroke="var(--icon-color)" stroke-width="2" stroke-linecap="round" stroke-linejoin="round"/>
    <path d="M4 32H4.02" stroke="var(--icon-color)" stroke-width="2" stroke-linecap="round" stroke-linejoin="round"/>
    <path d="M43.6001 20C43.7413 20.6965 43.8465 22.9671 43.8509 25.5388" stroke="var(--icon-color)" stroke-width="2" stroke-linecap="round" stroke-linejoin="round"/>
    <path d="M18 13.5999C19.8248 12.5463 21.8948 11.9919 24.0019 11.9922C26.109 11.9925 28.1789 12.5477 30.0033 13.6018C31.8278 14.6559 33.3425 16.1719 34.3952 17.9972C35.4479 19.8225 36.0014 21.8928 36 23.9999" stroke="var(--icon-color)" stroke-width="2" stroke-linecap="round" stroke-linejoin="round"/>
</svg>
