<svg xmlns="http://www.w3.org/2000/svg" width="16" height="16" viewBox="0 0 16 16" fill="none">
    <path d="M7.99998 8.66634C8.36817 8.66634 8.66665 8.36786 8.66665 7.99967C8.66665 7.63148 8.36817 7.33301 7.99998 7.33301C7.63179 7.33301 7.33331 7.63148 7.33331 7.99967C7.33331 8.36786 7.63179 8.66634 7.99998 8.66634Z" stroke="var(--icon-color)" stroke-width="1.5" stroke-linecap="round" stroke-linejoin="round"/>
    <path d="M12.6667 8.66634C13.0349 8.66634 13.3333 8.36786 13.3333 7.99967C13.3333 7.63148 13.0349 7.33301 12.6667 7.33301C12.2985 7.33301 12 7.63148 12 7.99967C12 8.36786 12.2985 8.66634 12.6667 8.66634Z" stroke="var(--icon-color)" stroke-width="1.5" stroke-linecap="round" stroke-linejoin="round"/>
    <path d="M3.33335 8.66634C3.70154 8.66634 4.00002 8.36786 4.00002 7.99967C4.00002 7.63148 3.70154 7.33301 3.33335 7.33301C2.96516 7.33301 2.66669 7.63148 2.66669 7.99967C2.66669 8.36786 2.96516 8.66634 3.33335 8.66634Z" stroke="var(--icon-color)" stroke-width="1.5" stroke-linecap="round" stroke-linejoin="round"/>
</svg>