<svg xmlns="http://www.w3.org/2000/svg" width="18" height="16" viewBox="0 0 18 16" fill="none">
    <path d="M16.9983 6.86377L10.087 0.485864C9.79154 0.219271 9.40454 0.0712891 9.00285 0.0712891C8.60117 0.0712891 8.21417 0.219271 7.91866 0.485864L3.58191 4.50538C4.14999 4.71209 4.66027 5.04721 5.0713 5.48352C5.48232 5.91983 5.7825 6.445 5.94741 7.01637H11.802C11.8734 7.01636 11.944 7.03017 12.0099 7.05698C12.0758 7.0838 12.1357 7.1231 12.186 7.17262C12.2364 7.22215 12.2763 7.28093 12.3034 7.3456C12.3306 7.41027 12.3444 7.47955 12.3441 7.54947V8.42445C12.3444 8.49437 12.3306 8.56365 12.3034 8.62831C12.2763 8.69298 12.2364 8.75177 12.186 8.80129C12.1357 8.85082 12.0758 8.89012 12.0099 8.91693C11.944 8.94375 11.8734 8.95755 11.802 8.95755H11.1259V10.1957C11.1264 10.2655 11.1128 10.3347 11.0859 10.3994C11.059 10.464 11.0193 10.5228 10.9691 10.5724C10.9189 10.6219 10.8592 10.6613 10.7934 10.6881C10.7276 10.7149 10.657 10.7288 10.5858 10.7288H9.10142C9.03015 10.7288 8.95959 10.7149 8.8938 10.6881C8.82801 10.6613 8.7683 10.6219 8.71809 10.5724C8.66788 10.5228 8.62819 10.464 8.60128 10.3994C8.57436 10.3347 8.56077 10.2655 8.56129 10.1957V8.95755H5.94741C5.79057 9.53518 5.49357 10.0671 5.08169 10.508C4.66982 10.9489 4.15528 11.2857 3.58191 11.4898L7.93837 15.5151C8.23388 15.7817 8.62088 15.9297 9.02256 15.9297C9.42424 15.9297 9.81124 15.7817 10.1067 15.5151L17.0061 9.14105C17.163 8.99368 17.2877 8.81661 17.3727 8.6206C17.4576 8.42459 17.501 8.21371 17.5003 8.00075C17.4995 7.7878 17.4547 7.57722 17.3684 7.38177C17.2821 7.18633 17.1562 7.0101 16.9983 6.86377Z" fill="var(--icon-color)"/>
    <path d="M2.29753 6.24414C2.01566 6.24963 1.73845 6.31556 1.48538 6.43729C1.20236 6.57488 0.961972 6.78402 0.789058 7.04311C0.616145 7.3022 0.516979 7.60183 0.501804 7.91104C0.486629 8.22025 0.556 8.52782 0.702744 8.80197C0.849488 9.07612 1.06828 9.3069 1.33652 9.47046C1.60476 9.63402 1.9127 9.72443 2.22853 9.73235C2.54436 9.74026 2.85663 9.66539 3.13304 9.51548C3.40946 9.36556 3.64001 9.14604 3.80086 8.8796C3.96172 8.61316 4.04704 8.30947 4.04801 7.9999C4.05353 7.77127 4.01233 7.54386 3.92683 7.33106C3.84134 7.11826 3.71328 6.92436 3.55018 6.76077C3.38708 6.59717 3.19224 6.46719 2.97711 6.37847C2.76199 6.28975 2.53093 6.24408 2.29753 6.24414Z" fill="var(--icon-color)"/>
</svg>