<svg width="48" height="48" viewBox="0 0 48 48" fill="none" xmlns="http://www.w3.org/2000/svg">
    <path d="M2.98334 31.1701V36.4426C2.98334 37.497 3.68633 38.2 4.74081 38.2H11.7707V32.9276H17.0431V27.6552H20.558L23.0185 25.1947C25.4611 26.0456 28.1201 26.0424 30.5607 25.1855C33.0012 24.3287 35.0786 22.669 36.4532 20.4779C37.8278 18.2869 38.4182 15.6942 38.1277 13.124C37.8372 10.5538 36.683 8.15827 34.8541 6.3293C33.0251 4.50033 30.6296 3.34619 28.0594 3.05569C25.4892 2.76519 22.8965 3.35553 20.7055 4.73013C18.5144 6.10472 16.8547 8.18221 15.9978 10.6227C15.141 13.0632 15.1377 15.7223 15.9886 18.1649L2.98334 31.1701Z" stroke="var(--icon-color)" stroke-width="2" stroke-linecap="round" stroke-linejoin="round"/>
    <path d="M28.4663 13.5954C28.9516 13.5954 29.3451 13.2019 29.3451 12.7166C29.3451 12.2313 28.9516 11.8379 28.4663 11.8379C27.981 11.8379 27.5876 12.2313 27.5876 12.7166C27.5876 13.2019 27.981 13.5954 28.4663 13.5954Z" stroke="var(--icon-color)" stroke-width="2" stroke-linecap="round" stroke-linejoin="round"/>
    <path d="M36 45C39.3137 45 42 42.3137 42 39C42 35.6863 39.3137 33 36 33C32.6863 33 30 35.6863 30 39C30 42.3137 32.6863 45 36 45Z" stroke="var(--icon-color)" stroke-width="2" stroke-linecap="round" stroke-linejoin="round"/>
    <path d="M43.4001 41.7992L41.6001 41.1992" stroke="var(--icon-color)" stroke-width="2" stroke-linecap="round" stroke-linejoin="round"/>
    <path d="M30.4001 36.7992L28.6001 36.1992" stroke="var(--icon-color)" stroke-width="2" stroke-linecap="round" stroke-linejoin="round"/>
    <path d="M33.2 46.3996L33.7999 44.5996" stroke="var(--icon-color)" stroke-width="2" stroke-linecap="round" stroke-linejoin="round"/>
    <path d="M38.2 33.3996L38.7999 31.5996" stroke="var(--icon-color)" stroke-width="2" stroke-linecap="round" stroke-linejoin="round"/>
    <path d="M39.1999 46.3994L38.3999 44.3994" stroke="var(--icon-color)" stroke-width="2" stroke-linecap="round" stroke-linejoin="round"/>
    <path d="M33.6 33.5996L32.8 31.5996" stroke="var(--icon-color)" stroke-width="2" stroke-linecap="round" stroke-linejoin="round"/>
    <path d="M28.6001 42.1994L30.6001 41.3994" stroke="var(--icon-color)" stroke-width="2" stroke-linecap="round" stroke-linejoin="round"/>
    <path d="M41.3999 36.5998L43.3999 35.7998" stroke="var(--icon-color)" stroke-width="2" stroke-linecap="round" stroke-linejoin="round"/>
</svg>
