<svg xmlns="http://www.w3.org/2000/svg" width="18" height="18" viewBox="0 0 18 18" fill="none">
    <path d="M9 2.30939C9.388 2.30939 9.70254 1.99485 9.70254 1.60684C9.70254 1.21884 9.388 0.904297 9 0.904297C8.61199 0.904297 8.29745 1.21884 8.29745 1.60684C8.29745 1.99485 8.61199 2.30939 9 2.30939Z" fill="var(--icon-color)" stroke="var(--icon-color)" stroke-width="1.5" stroke-linecap="round" stroke-linejoin="round"/>
    <path d="M13.9178 2.30939C14.3058 2.30939 14.6204 1.99485 14.6204 1.60684C14.6204 1.21884 14.3058 0.904297 13.9178 0.904297C13.5298 0.904297 13.2153 1.21884 13.2153 1.60684C13.2153 1.99485 13.5298 2.30939 13.9178 2.30939Z" fill="var(--icon-color)" stroke="var(--icon-color)" stroke-width="1.5" stroke-linecap="round" stroke-linejoin="round"/>
    <path d="M4.08221 2.30939C4.47022 2.30939 4.78476 1.99485 4.78476 1.60684C4.78476 1.21884 4.47022 0.904297 4.08221 0.904297C3.69421 0.904297 3.37967 1.21884 3.37967 1.60684C3.37967 1.99485 3.69421 2.30939 4.08221 2.30939Z" fill="var(--icon-color)" stroke="var(--icon-color)" stroke-width="1.5" stroke-linecap="round" stroke-linejoin="round"/>
    <path d="M9 7.22638C9.388 7.22638 9.70254 6.91184 9.70254 6.52383C9.70254 6.13583 9.388 5.82129 9 5.82129C8.61199 5.82129 8.29745 6.13583 8.29745 6.52383C8.29745 6.91184 8.61199 7.22638 9 7.22638Z" fill="var(--icon-color)" stroke="var(--icon-color)" stroke-width="1.5" stroke-linecap="round" stroke-linejoin="round"/>
    <path d="M13.9178 7.22638C14.3058 7.22638 14.6204 6.91184 14.6204 6.52383C14.6204 6.13583 14.3058 5.82129 13.9178 5.82129C13.5298 5.82129 13.2153 6.13583 13.2153 6.52383C13.2153 6.91184 13.5298 7.22638 13.9178 7.22638Z" fill="var(--icon-color)" stroke="var(--icon-color)" stroke-width="1.5" stroke-linecap="round" stroke-linejoin="round"/>
    <path d="M4.08221 7.22638C4.47022 7.22638 4.78476 6.91184 4.78476 6.52383C4.78476 6.13583 4.47022 5.82129 4.08221 5.82129C3.69421 5.82129 3.37967 6.13583 3.37967 6.52383C3.37967 6.91184 3.69421 7.22638 4.08221 7.22638Z" fill="var(--icon-color)" stroke="var(--icon-color)" stroke-width="1.5" stroke-linecap="round" stroke-linejoin="round"/>
    <path d="M9 12.1443C9.388 12.1443 9.70254 11.8298 9.70254 11.4418C9.70254 11.0538 9.388 10.7393 9 10.7393C8.61199 10.7393 8.29745 11.0538 8.29745 11.4418C8.29745 11.8298 8.61199 12.1443 9 12.1443Z" fill="var(--icon-color)" stroke="var(--icon-color)" stroke-width="1.5" stroke-linecap="round" stroke-linejoin="round"/>
    <path d="M13.9178 12.1443C14.3058 12.1443 14.6204 11.8298 14.6204 11.4418C14.6204 11.0538 14.3058 10.7393 13.9178 10.7393C13.5298 10.7393 13.2153 11.0538 13.2153 11.4418C13.2153 11.8298 13.5298 12.1443 13.9178 12.1443Z" fill="var(--icon-color)" stroke="var(--icon-color)" stroke-width="1.5" stroke-linecap="round" stroke-linejoin="round"/>
    <path d="M4.08221 12.1443C4.47022 12.1443 4.78476 11.8298 4.78476 11.4418C4.78476 11.0538 4.47022 10.7393 4.08221 10.7393C3.69421 10.7393 3.37967 11.0538 3.37967 11.4418C3.37967 11.8298 3.69421 12.1443 4.08221 12.1443Z" fill="var(--icon-color)" stroke="var(--icon-color)" stroke-width="1.5" stroke-linecap="round" stroke-linejoin="round"/>
    <path d="M9 17.0955C9.388 17.0955 9.70254 16.781 9.70254 16.393C9.70254 16.005 9.388 15.6904 9 15.6904C8.61199 15.6904 8.29745 16.005 8.29745 16.393C8.29745 16.781 8.61199 17.0955 9 17.0955Z" fill="var(--icon-color)" stroke="var(--icon-color)" stroke-width="1.5" stroke-linecap="round" stroke-linejoin="round"/>
</svg>