<svg xmlns="http://www.w3.org/2000/svg" width="18" height="18" viewBox="0 0 18 18" fill="none">
    <path d="M12.75 13.5C12.75 13.1022 12.592 12.7206 12.3107 12.4393C12.0294 12.158 11.6478 12 11.25 12H6.75C6.35218 12 5.97064 12.158 5.68934 12.4393C5.40804 12.7206 5.25 13.1022 5.25 13.5" stroke="var(--icon-color)" stroke-width="1.5" stroke-linecap="round" stroke-linejoin="round"/>
    <path d="M14.25 3H3.75C2.92157 3 2.25 3.67157 2.25 4.5V15C2.25 15.8284 2.92157 16.5 3.75 16.5H14.25C15.0784 16.5 15.75 15.8284 15.75 15V4.5C15.75 3.67157 15.0784 3 14.25 3Z" stroke="var(--icon-color)" stroke-width="1.5" stroke-linecap="round" stroke-linejoin="round"/>
    <path d="M9 9C9.82843 9 10.5 8.32843 10.5 7.5C10.5 6.67157 9.82843 6 9 6C8.17157 6 7.5 6.67157 7.5 7.5C7.5 8.32843 8.17157 9 9 9Z" stroke="var(--icon-color)" stroke-width="1.5" stroke-linecap="round" stroke-linejoin="round"/>
    <path d="M6 1.5V3" stroke="var(--icon-color)" stroke-width="1.5" stroke-linecap="round" stroke-linejoin="round"/>
    <path d="M12 1.5V3" stroke="var(--icon-color)" stroke-width="1.5" stroke-linecap="round" stroke-linejoin="round"/>
</svg>