<svg width="18" height="18" viewBox="0 0 18 18" fill="none" xmlns="http://www.w3.org/2000/svg">
    <path d="M15.75 13.6667C15.75 14.0203 15.6078 14.3594 15.3546 14.6095C15.1014 14.8595 14.758 15 14.4 15H3.6C3.24196 15 2.89858 14.8595 2.64541 14.6095C2.39223 14.3594 2.25 14.0203 2.25 13.6667V4.33333C2.25 3.97971 2.39223 3.64057 2.64541 3.39052C2.89858 3.14048 3.24196 3 3.6 3H6.975L8.325 5H14.4C14.758 5 15.1014 5.14048 15.3546 5.39052C15.6078 5.64057 15.75 5.97971 15.75 6.33333V13.6667Z" fill="var(--icon-background-color)" stroke="var(--icon-color)" stroke-width="1.5" stroke-linecap="round" stroke-linejoin="round"/>
    <path d="M12.9982 15.0141L12.9982 14.67C12.9949 14.1406 12.7844 13.6335 12.4118 13.2573C12.0373 12.8823 11.5291 12.6714 10.9991 12.6709H7.00093C6.47091 12.6714 5.96278 12.8823 5.58824 13.2573C5.21567 13.6335 5.00518 14.1406 5.00183 14.67L5.00183 14.9741" fill="var(--icon-color)"/>
    <path d="M9.00044 10.672C9.39582 10.672 9.78235 10.5548 10.1111 10.3351C10.4399 10.1155 10.6961 9.80326 10.8474 9.43798C10.9987 9.07269 11.0383 8.67073 10.9611 8.28294C10.884 7.89516 10.6936 7.53894 10.414 7.25936C10.1344 6.97978 9.77823 6.78938 9.39044 6.71224C9.00265 6.63511 8.60073 6.67469 8.23544 6.826C7.87016 6.97731 7.55793 7.23357 7.33827 7.56232C7.1186 7.89107 7.00134 8.27756 7.00134 8.67294C7.00134 9.20314 7.21199 9.71163 7.58689 10.0865C7.9618 10.4614 8.47025 10.672 9.00044 10.672Z" fill="var(--icon-color)"/>
</svg>
