<svg xmlns="http://www.w3.org/2000/svg" width="17" height="17" viewBox="0 0 17 17" fill="none">
    <path d="M14.4266 9.16014L15.7751 5.17613C15.8259 5.02803 15.8346 4.86873 15.8 4.71602C15.7655 4.56331 15.6891 4.42321 15.5795 4.31139L13.15 1.88187C13.0377 1.76964 12.8963 1.69092 12.7418 1.65455C12.5872 1.61818 12.4256 1.6256 12.275 1.67598L8.30128 3.03486C8.17712 3.07729 8.0644 3.14774 7.97186 3.24075L1.86718 9.34544C1.78874 9.42383 1.72651 9.51691 1.68406 9.61936C1.6416 9.72181 1.61975 9.83162 1.61975 9.94252C1.61975 10.0534 1.6416 10.1632 1.68406 10.2657C1.72651 10.3681 1.78874 10.4612 1.86718 10.5396L6.92181 15.5942C7.0002 15.6727 7.09329 15.7349 7.19574 15.7774C7.29819 15.8198 7.408 15.8417 7.5189 15.8417C7.6298 15.8417 7.73961 15.8198 7.84206 15.7774C7.94451 15.7349 8.03759 15.6727 8.11598 15.5942L14.2207 9.48956C14.3137 9.39702 14.3841 9.2843 14.4266 9.16014V9.16014Z" stroke="var(--icon-color)" stroke-width="1.5" stroke-miterlimit="10" stroke-linecap="round"/>
    <path d="M12.5323 6.02002C13.1122 6.02002 13.5823 5.54989 13.5823 4.96997C13.5823 4.39004 13.1122 3.91992 12.5323 3.91992C11.9524 3.91992 11.4822 4.39004 11.4822 4.96997C11.4822 5.54989 11.9524 6.02002 12.5323 6.02002Z" fill="var(--icon-color)"/>
</svg>