<svg xmlns="http://www.w3.org/2000/svg" width="18" height="16" viewBox="0 0 18 16" fill="none">
    <path d="M12.7413 14.3384V12.8904C12.7501 12.512 12.6813 12.1359 12.5392 11.7852C12.3972 11.4344 12.1849 11.1165 11.9153 10.8508C11.6483 10.5832 11.3301 10.3722 10.9797 10.2302C10.6292 10.0883 10.2538 10.0185 9.8758 10.0248H4.24669C3.50823 10.0514 2.80959 10.3663 2.30059 10.902C1.79159 11.4377 1.51279 12.1515 1.52394 12.8904C1.52394 12.8904 1.52394 13.7729 1.52394 14.3384" stroke="var(--icon-color)" stroke-width="1.5" stroke-linecap="round" stroke-linejoin="round"/>
    <path d="M7.14262 7.26093C7.69928 7.26093 8.24346 7.09586 8.70631 6.78659C9.16916 6.47733 9.52991 6.03775 9.74294 5.52346C9.95597 5.00917 10.0117 4.44326 9.90309 3.89729C9.79449 3.35132 9.52641 2.84982 9.13279 2.4562C8.73917 2.06258 8.23768 1.79452 7.69171 1.68592C7.14574 1.57732 6.57982 1.63305 6.06553 1.84608C5.55124 2.05911 5.11167 2.41985 4.80241 2.8827C4.49314 3.34555 4.32806 3.88972 4.32806 4.44638C4.33075 5.19202 4.62813 5.90635 5.15538 6.4336C5.68262 6.96085 6.39698 7.25824 7.14262 7.26093V7.26093Z" stroke="var(--icon-color)" stroke-width="1.5" stroke-linecap="round" stroke-linejoin="round"/>
    <path d="M16.9937 14.3377V12.8896C16.9908 12.2659 16.783 11.6603 16.4023 11.1662C16.0251 10.6648 15.4897 10.3055 14.8828 10.1465" stroke="var(--icon-color)" stroke-width="1.5" stroke-linecap="round" stroke-linejoin="round"/>
    <path d="M12.0683 1.72363C12.6766 1.87962 13.2129 2.23958 13.5877 2.7434C13.9714 3.23594 14.1798 3.84244 14.1798 4.46679C14.1798 5.09115 13.9714 5.69765 13.5877 6.19019C13.2129 6.69401 12.6766 7.05397 12.0683 7.20995" stroke="var(--icon-color)" stroke-width="1.5" stroke-linecap="round" stroke-linejoin="round"/>
</svg>