<svg xmlns="http://www.w3.org/2000/svg" width="18" height="18" viewBox="0 0 18 18" fill="none">
    <path d="M7.5 8.25C9.15685 8.25 10.5 6.90685 10.5 5.25C10.5 3.59315 9.15685 2.25 7.5 2.25C5.84315 2.25 4.5 3.59315 4.5 5.25C4.5 6.90685 5.84315 8.25 7.5 8.25Z" stroke="var(--icon-color)" stroke-width="1.5" stroke-linecap="round" stroke-linejoin="round"/>
    <path d="M7.725 11.25H5.25C4.45435 11.25 3.69129 11.5661 3.12868 12.1287C2.56607 12.6913 2.25 13.4544 2.25 14.25V15.75" stroke="var(--icon-color)" stroke-width="1.5" stroke-linecap="round" stroke-linejoin="round"/>
    <path d="M12.75 15C13.9926 15 15 13.9926 15 12.75C15 11.5074 13.9926 10.5 12.75 10.5C11.5074 10.5 10.5 11.5074 10.5 12.75C10.5 13.9926 11.5074 15 12.75 15Z" stroke="var(--icon-color)" stroke-width="1.5" stroke-linecap="round" stroke-linejoin="round"/>
    <path d="M15.75 15.7502L14.325 14.3252" stroke="var(--icon-color)" stroke-width="1.5" stroke-linecap="round" stroke-linejoin="round"/>
</svg>