<svg xmlns="http://www.w3.org/2000/svg" width="18" height="18" viewBox="0 0 18 18" fill="none">
    <path d="M13.5 13.5C14.7426 13.5 15.75 12.4926 15.75 11.25C15.75 10.0074 14.7426 9 13.5 9C12.2574 9 11.25 10.0074 11.25 11.25C11.25 12.4926 12.2574 13.5 13.5 13.5Z" stroke="var(--icon-color)" stroke-width="1.5" stroke-linecap="round" stroke-linejoin="round"/>
    <path d="M6.75 8.25C8.40685 8.25 9.75 6.90685 9.75 5.25C9.75 3.59315 8.40685 2.25 6.75 2.25C5.09315 2.25 3.75 3.59315 3.75 5.25C3.75 6.90685 5.09315 8.25 6.75 8.25Z" stroke="var(--icon-color)" stroke-width="1.5" stroke-linecap="round" stroke-linejoin="round"/>
    <path d="M7.5 11.25H4.5C3.70435 11.25 2.94129 11.5661 2.37868 12.1287C1.81607 12.6913 1.5 13.4544 1.5 14.25V15.75" stroke="var(--icon-color)" stroke-width="1.5" stroke-linecap="round" stroke-linejoin="round"/>
    <path d="M16.275 12.3002L15.6 12.0752" stroke="var(--icon-color)" stroke-width="1.5" stroke-linecap="round" stroke-linejoin="round"/>
    <path d="M11.4 10.4252L10.725 10.2002" stroke="var(--icon-color)" stroke-width="1.5" stroke-linecap="round" stroke-linejoin="round"/>
    <path d="M12.45 14.0246L12.675 13.3496" stroke="var(--icon-color)" stroke-width="1.5" stroke-linecap="round" stroke-linejoin="round"/>
    <path d="M14.325 9.14961L14.55 8.47461" stroke="var(--icon-color)" stroke-width="1.5" stroke-linecap="round" stroke-linejoin="round"/>
    <path d="M14.7 14.0254L14.4 13.2754" stroke="var(--icon-color)" stroke-width="1.5" stroke-linecap="round" stroke-linejoin="round"/>
    <path d="M12.6 9.22461L12.3 8.47461" stroke="var(--icon-color)" stroke-width="1.5" stroke-linecap="round" stroke-linejoin="round"/>
    <path d="M10.725 12.4504L11.475 12.1504" stroke="var(--icon-color)" stroke-width="1.5" stroke-linecap="round" stroke-linejoin="round"/>
    <path d="M15.525 10.3498L16.275 10.0498" stroke="var(--icon-color)" stroke-width="1.5" stroke-linecap="round" stroke-linejoin="round"/>
</svg>