<svg xmlns="http://www.w3.org/2000/svg" width="18" height="18" viewBox="0 0 18 18" fill="none">
    <path d="M1.5 9C1.5 9.99456 1.89509 10.9484 2.59835 11.6517C3.30161 12.3549 4.25544 12.75 5.25 12.75C6.63578 12.8016 7.9609 13.3317 9 14.25C10.0391 13.3317 11.3642 12.8016 12.75 12.75C13.7446 12.75 14.6984 12.3549 15.4017 11.6517C16.1049 10.9484 16.5 9.99456 16.5 9V5.25H12.75C11.3642 5.30162 10.0391 5.83167 9 6.75C7.9609 5.83167 6.63578 5.30162 5.25 5.25H1.5V9Z" stroke="var(--icon-color)" stroke-width="1.5" stroke-linecap="round" stroke-linejoin="round"/>
    <path d="M4.5 8.25C5.625 8.25 6.75 8.625 6.75 9.75C5.25 9.75 4.5 9.75 4.5 8.25Z" stroke="var(--icon-color)" stroke-width="1.5" stroke-linecap="round" stroke-linejoin="round"/>
    <path d="M13.5 8.25C12.375 8.25 11.25 8.625 11.25 9.75C12.75 9.75 13.5 9.75 13.5 8.25Z" stroke="var(--icon-color)" stroke-width="1.5" stroke-linecap="round" stroke-linejoin="round"/>
</svg>