<svg xmlns="http://www.w3.org/2000/svg" width="18" height="18" viewBox="0 0 18 18" fill="none">
    <path d="M14.25 2.25H3.75C2.92157 2.25 2.25 2.92157 2.25 3.75V14.25C2.25 15.0784 2.92157 15.75 3.75 15.75H14.25C15.0784 15.75 15.75 15.0784 15.75 14.25V3.75C15.75 2.92157 15.0784 2.25 14.25 2.25Z" stroke="var(--icon-color)" stroke-width="1.5" stroke-linecap="round" stroke-linejoin="round"/>
    <path d="M2.25 6.75C2.25 6.35218 2.40804 5.97064 2.68934 5.68934C2.97064 5.40804 3.35218 5.25 3.75 5.25H14.25C14.6478 5.25 15.0294 5.40804 15.3107 5.68934C15.592 5.97064 15.75 6.35218 15.75 6.75" stroke="var(--icon-color)" stroke-width="1.5" stroke-linecap="round" stroke-linejoin="round"/>
    <path d="M2.25 8.25H4.5C5.1 8.25 5.7 8.475 6.075 8.925L6.9 9.6C8.1 10.8 9.975 10.8 11.175 9.6L12 8.925C12.375 8.55 12.975 8.25 13.575 8.25H15.75" stroke="var(--icon-color)" stroke-width="1.5" stroke-linecap="round" stroke-linejoin="round"/>
</svg>