<svg viewBox="0 0 128 128" shape-rendering="geometricPrecision" text-rendering="geometricPrecision">
  <path id="warning-dot" d="M64.0382,46.7607v23.4118" fill="none" stroke-width="7" stroke-linecap="round" stroke-linejoin="round" stroke-dashoffset="23.42" stroke-dasharray="23.42"/>
  <path id="warning-bar" d="M64.0382,93.585h.0878" fill="none" stroke-width="7" stroke-linecap="round" stroke-linejoin="round" stroke-dashoffset="0.09" stroke-dasharray="0.09"/>
  <path id="warning-triangle" d="M53.9542,16.6848L4.41216,99.4593c-.76899,1.3287-1.26835,2.7977-1.46854,4.3187-.20018,1.523-.09741,3.071.30181,4.553.39923,1.483,1.08764,2.872,2.02516,4.088s2.10567,2.235,3.43802,2.999c1.71929,1.038,3.69119,1.584,5.69969,1.578h99.1707c1.539-.011,3.061-.327,4.478-.929c1.416-.602,2.698-1.479,3.775-2.579c1.076-1.101,1.923-2.403,2.494-3.833.57-1.429.851-2.958.829-4.496.005-2.009-.542-3.98-1.579-5.6997L74.0333,16.6848c-.7925-1.3268-1.8406-2.4828-3.0838-3.4009-1.2431-.9181-2.656-1.58-4.1573-1.9471-1.5011-.3672-3.0599-.4322-4.5865-.1915-1.5266.2406-2.9907.7824-4.3061,1.5937-1.6047.9898-2.9555,2.3411-3.9454,3.9458Z" fill="none" stroke-width="3" stroke-linecap="round" stroke-linejoin="round" stroke-dashoffset="364.98" stroke-dasharray="364.98"/>
</svg>
